<?xml version="1.0" encoding="UTF-8"?>
<svg xmlns="http://www.w3.org/2000/svg" width="802" height="802" viewBox="0 0 802 802" fill="none">
  <path d="M601.309 601.309C712.007 490.611 712.007 311.134 601.309 200.436C490.611 89.7384 311.134 89.7384 200.436 200.436C89.7385 311.134 89.7385 490.611 200.436 601.309C311.134 712.007 490.611 712.007 601.309 601.309Z" fill="#12100C"></path>
  <path d="M510.287 332.463C513.157 330.453 517.117 331.143 519.126 334.023C521.137 336.893 520.447 340.853 517.567 342.863L510.277 332.463H510.287ZM510.287 332.463L517.577 342.863L513.387 345.743L509.217 348.493L505.067 351.113L500.927 353.603L496.797 355.943L492.677 358.133L488.567 360.173L484.457 362.053L480.347 363.763L476.227 365.293L472.107 366.643L467.977 367.803L463.827 368.763L459.667 369.523L455.497 370.063L451.317 370.383L447.117 370.483L442.907 370.343L438.697 369.963L434.477 369.333L430.257 368.453L426.027 367.323L421.797 365.933L417.567 364.283L413.347 362.373L409.127 360.193L404.897 357.743L400.667 355.023L396.437 352.033L392.197 348.763L387.947 345.213L383.677 341.383L392.317 332.083L396.257 335.613L400.147 338.853L403.987 341.813L407.777 344.493L411.527 346.903L415.227 349.043L418.887 350.933L422.507 352.573L426.097 353.973L429.657 355.143L433.187 356.093L436.697 356.823L440.197 357.343L443.687 357.653L447.177 357.763L450.677 357.683L454.187 357.413L457.707 356.953L461.247 356.303L464.817 355.473L468.417 354.463L472.047 353.273L475.707 351.913L479.397 350.383L483.127 348.683L486.887 346.823L490.687 344.803L494.527 342.623L498.407 340.293L502.327 337.813L506.287 335.193L510.287 332.443V332.463ZM392.377 332.153C394.917 334.573 395.017 338.583 392.597 341.123C390.177 343.663 386.167 343.763 383.627 341.343L392.377 332.143V332.153ZM392.327 332.103L383.687 341.403L383.637 341.353L379.677 337.723L375.757 334.383L371.867 331.323L368.017 328.543L364.207 326.043L360.437 323.803L356.707 321.823L353.017 320.103L349.367 318.623L345.757 317.383L342.187 316.383L338.657 315.603L335.167 315.043L331.717 314.693L328.297 314.553L324.907 314.623L321.547 314.893L318.207 315.353L314.887 316.013L311.587 316.863L308.307 317.903L305.047 319.123L301.807 320.533L298.587 322.123L295.387 323.893L292.217 325.843L289.067 327.973L285.947 330.273L282.847 332.743L279.777 335.373L276.747 338.163L273.747 341.113L264.697 332.213L267.987 328.973L271.337 325.883L274.747 322.953L278.217 320.193L281.747 317.593L285.337 315.173L288.987 312.933L292.687 310.883L296.447 309.023L300.267 307.363L304.137 305.903L308.067 304.663L312.047 303.643L316.077 302.843L320.147 302.283L324.257 301.953L328.407 301.873L332.587 302.043L336.797 302.463L341.027 303.143L345.277 304.083L349.537 305.283L353.807 306.743L358.087 308.473L362.367 310.473L366.657 312.743L370.947 315.283L375.237 318.103L379.527 321.193L383.817 324.563L388.107 328.223L392.397 332.163L392.347 332.113L392.327 332.103ZM273.737 341.123C271.277 343.623 267.257 343.653 264.757 341.193C262.257 338.733 262.227 334.713 264.687 332.213L273.737 341.113V341.123Z" fill="white"></path>
  <path d="M272.856 395.823C269.986 397.833 266.026 397.143 264.016 394.263C262.006 391.393 262.696 387.433 265.576 385.423L272.866 395.823H272.856ZM272.856 395.823L265.566 385.423L269.756 382.543L273.926 379.793L278.076 377.173L282.216 374.693L286.336 372.353L290.456 370.163L294.566 368.123L298.676 366.243L302.786 364.533L306.906 363.003L311.026 361.653L315.156 360.493L319.306 359.533L323.466 358.773L327.636 358.223L331.816 357.903L336.016 357.803L340.226 357.943L344.436 358.323L348.656 358.953L352.876 359.833L357.106 360.963L361.336 362.353L365.566 364.003L369.786 365.913L374.006 368.093L378.236 370.543L382.466 373.263L386.696 376.253L390.936 379.523L395.186 383.073L399.456 386.903L390.816 396.203L386.876 392.673L382.986 389.433L379.146 386.473L375.356 383.793L371.606 381.383L367.906 379.243L364.246 377.353L360.626 375.713L357.036 374.313L353.476 373.143L349.946 372.193L346.436 371.463L342.936 370.943L339.446 370.633L335.956 370.523L332.456 370.603L328.946 370.873L325.426 371.333L321.886 371.983L318.316 372.813L314.716 373.823L311.086 375.013L307.426 376.373L303.736 377.903L300.006 379.603L296.246 381.463L292.446 383.483L288.606 385.663L284.726 387.993L280.806 390.473L276.846 393.093L272.846 395.843L272.856 395.823ZM390.776 396.123C388.236 393.703 388.136 389.693 390.556 387.153C392.976 384.613 396.986 384.513 399.526 386.933L390.776 396.133V396.123ZM390.826 396.183L399.466 386.883L399.516 386.933L403.476 390.563L407.396 393.903L411.286 396.963L415.136 399.743L418.946 402.243L422.716 404.483L426.446 406.463L430.136 408.183L433.786 409.663L437.396 410.903L440.966 411.903L444.496 412.683L447.986 413.243L451.436 413.593L454.856 413.733L458.246 413.663L461.606 413.393L464.946 412.933L468.266 412.273L471.566 411.423L474.846 410.383L478.106 409.163L481.346 407.753L484.566 406.163L487.766 404.393L490.936 402.443L494.086 400.313L497.206 398.013L500.306 395.543L503.376 392.913L506.406 390.123L509.406 387.173L518.456 396.073L515.166 399.313L511.816 402.403L508.406 405.333L504.936 408.093L501.406 410.693L497.816 413.113L494.166 415.353L490.466 417.403L486.706 419.263L482.886 420.923L479.016 422.383L475.086 423.623L471.106 424.643L467.076 425.443L463.006 426.003L458.896 426.333L454.746 426.413L450.566 426.243L446.356 425.823L442.126 425.143L437.876 424.203L433.616 423.003L429.346 421.543L425.066 419.813L420.786 417.813L416.496 415.543L412.206 413.003L407.916 410.183L403.626 407.093L399.336 403.723L395.046 400.063L390.756 396.123L390.806 396.173L390.826 396.183ZM509.406 387.163C511.866 384.663 515.886 384.633 518.386 387.093C520.886 389.553 520.916 393.573 518.456 396.073L509.406 387.173V387.163Z" fill="white"></path>
  <path d="M272.856 451.743C269.986 453.753 266.026 453.063 264.016 450.183C262.006 447.313 262.696 443.353 265.576 441.343L272.866 451.743H272.856ZM272.856 451.743L265.566 441.343L269.756 438.463L273.926 435.713L278.076 433.093L282.216 430.603L286.346 428.263L290.466 426.073L294.576 424.033L298.686 422.153L302.796 420.443L306.916 418.913L311.036 417.563L315.166 416.403L319.316 415.443L323.476 414.683L327.646 414.143L331.826 413.823L336.026 413.723L340.236 413.863L344.446 414.243L348.666 414.873L352.886 415.753L357.116 416.883L361.346 418.273L365.566 419.923L369.786 421.833L374.006 424.013L378.236 426.463L382.466 429.183L386.696 432.173L390.936 435.443L395.186 438.993L399.456 442.823L390.816 452.123L386.876 448.593L382.986 445.353L379.146 442.393L375.356 439.713L371.606 437.303L367.906 435.163L364.246 433.273L360.626 431.633L357.036 430.233L353.476 429.063L349.946 428.113L346.436 427.383L342.936 426.863L339.446 426.553L335.956 426.443L332.466 426.523L328.956 426.793L325.436 427.253L321.896 427.903L318.326 428.733L314.726 429.743L311.096 430.933L307.436 432.293L303.746 433.823L300.016 435.523L296.256 437.383L292.456 439.403L288.616 441.583L284.736 443.913L280.816 446.393L276.856 449.013L272.856 451.763V451.743ZM390.776 452.053C388.236 449.633 388.136 445.623 390.556 443.083C392.976 440.543 396.986 440.443 399.526 442.863L390.776 452.063V452.053ZM390.826 452.103L399.466 442.803L399.516 442.853L403.476 446.483L407.396 449.823L411.286 452.883L415.136 455.663L418.946 458.163L422.716 460.403L426.446 462.383L430.136 464.103L433.786 465.583L437.396 466.823L440.966 467.823L444.496 468.603L447.986 469.163L451.436 469.513L454.856 469.653L458.246 469.583L461.606 469.313L464.946 468.853L468.266 468.193L471.566 467.343L474.846 466.303L478.106 465.083L481.346 463.673L484.566 462.083L487.766 460.313L490.936 458.363L494.086 456.233L497.206 453.933L500.306 451.463L503.376 448.833L506.406 446.043L509.406 443.093L518.456 451.993L515.166 455.233L511.816 458.323L508.406 461.253L504.936 464.013L501.406 466.613L497.816 469.033L494.166 471.273L490.466 473.323L486.706 475.183L482.886 476.843L479.016 478.303L475.086 479.543L471.106 480.563L467.076 481.363L463.006 481.923L458.896 482.253L454.746 482.333L450.566 482.163L446.356 481.743L442.126 481.063L437.886 480.123L433.626 478.923L429.356 477.463L425.076 475.733L420.796 473.733L416.506 471.463L412.216 468.923L407.926 466.103L403.636 463.013L399.346 459.643L395.056 455.983L390.766 452.043L390.816 452.093L390.826 452.103ZM509.406 443.083C511.866 440.583 515.886 440.553 518.386 443.013C520.886 445.473 520.916 449.493 518.456 451.993L509.406 443.093V443.083Z" fill="white"></path>
  <path d="M400.877 673.943C551.689 673.943 673.947 551.685 673.947 400.873C673.947 250.06 551.689 127.803 400.877 127.803C250.064 127.803 127.807 250.06 127.807 400.873C127.807 551.685 250.064 673.943 400.877 673.943Z" stroke="white" stroke-width="4.29" stroke-linecap="round" stroke-linejoin="round"></path>
  <path d="M164.307 376.183L168.387 353.793L174.207 354.903L171.417 370.213L179.067 371.603L181.637 357.543L187.507 358.623L184.947 372.683L196.747 374.833L195.467 381.863L164.307 376.183Z" fill="white"></path>
  <path d="M195.196 336.573L198.346 327.083L185.106 327.913L195.206 336.563L195.196 336.573ZM211.156 326.293L204.536 326.713L199.906 340.623L204.966 344.923L202.636 351.923L176.926 328.873L179.246 321.883L213.566 319.033L211.156 326.293Z" fill="white"></path>
  <path d="M192.597 290.713L196.857 283.983L218.567 286.063L207.367 267.393L211.607 260.703L238.367 277.663L234.927 283.093L216.847 271.633L227.387 288.973L224.917 292.873L204.717 290.783L222.797 302.233L219.347 307.653L192.597 290.713Z" fill="white"></path>
  <path d="M247.477 251.113L254.757 244.263L242.707 238.713L247.477 251.113ZM266.397 249.643L260.367 246.863L249.687 256.893L252.087 263.083L246.717 268.133L235.047 235.643L240.417 230.593L271.967 244.393L266.397 249.633V249.643Z" fill="white"></path>
  <path d="M279.816 220.703L285.396 217.173C287.076 216.113 288.136 214.903 288.536 213.553C288.956 212.203 288.686 210.773 287.736 209.273C286.806 207.793 285.646 206.963 284.266 206.783C282.876 206.603 281.356 207.033 279.666 208.103L274.086 211.623L279.816 220.693V220.703ZM298.226 226.833L289.146 221.863L288.576 222.233L282.986 225.753L287.816 233.413L281.776 237.223L264.866 210.443L276.496 203.103C279.996 200.903 283.206 199.993 286.136 200.413C289.076 200.823 291.476 202.513 293.346 205.463C294.656 207.533 295.336 209.563 295.406 211.573C295.476 213.583 294.936 215.483 293.796 217.273L305.076 222.513L298.226 226.833Z" fill="white"></path>
  <path d="M321.707 202.363L331.037 198.773L321.977 189.073L321.707 202.363ZM339.777 208.173L335.247 203.323L321.567 208.583L321.447 215.213L314.557 217.863L316.037 183.363L322.917 180.723L346.907 205.433L339.767 208.183L339.777 208.173Z" fill="white"></path>
  <path d="M398.896 174.953C397.196 174.093 395.406 173.453 393.546 173.013C391.676 172.573 390.096 172.403 388.806 172.513C387.576 172.613 386.616 172.923 385.926 173.423C385.246 173.933 384.936 174.623 385.006 175.493C385.106 176.603 385.686 177.413 386.766 177.913C387.856 178.413 389.506 178.893 391.716 179.343C393.926 179.793 395.766 180.283 397.216 180.803C398.656 181.323 399.936 182.173 401.026 183.353C402.116 184.543 402.756 186.163 402.926 188.233C403.086 190.243 402.696 192.033 401.746 193.573C400.796 195.113 399.426 196.343 397.616 197.243C395.816 198.143 393.726 198.693 391.346 198.893C388.786 199.093 386.246 198.853 383.706 198.153C381.166 197.453 378.936 196.383 377.006 194.973L379.376 188.923C381.086 190.243 383.016 191.243 385.156 191.953C387.306 192.653 389.226 192.943 390.946 192.803C392.416 192.683 393.546 192.323 394.326 191.713C395.106 191.103 395.456 190.283 395.376 189.263C395.306 188.453 394.976 187.813 394.376 187.333C393.776 186.843 393.036 186.483 392.156 186.213C391.276 185.953 390.056 185.673 388.526 185.373C386.316 184.953 384.496 184.493 383.076 184.003C381.666 183.513 380.406 182.693 379.316 181.533C378.226 180.383 377.596 178.793 377.426 176.743C377.266 174.853 377.646 173.153 378.556 171.633C379.456 170.123 380.806 168.913 382.566 167.993C384.336 167.073 386.446 166.523 388.876 166.323C391.036 166.143 393.196 166.293 395.356 166.753C397.516 167.203 399.446 167.893 401.156 168.823L398.886 174.943L398.896 174.953Z" fill="white"></path>
  <path d="M426.017 186.703C425.717 188.943 426.117 190.803 427.217 192.273C428.317 193.743 429.927 194.613 432.047 194.893C434.117 195.163 435.847 194.743 437.237 193.613C438.637 192.493 439.487 190.793 439.787 188.523L442.227 170.083L449.317 171.023L446.867 189.453C446.507 192.203 445.627 194.513 444.247 196.383C442.857 198.253 441.047 199.603 438.807 200.413C436.567 201.223 434.037 201.453 431.197 201.063C428.357 200.693 425.947 199.823 423.967 198.443C421.987 197.073 420.567 195.293 419.697 193.133C418.827 190.963 418.577 188.503 418.947 185.763L421.387 167.323L428.477 168.263L426.037 186.703H426.017Z" fill="white"></path>
  <path d="M471.276 194.233L477.546 196.323C479.436 196.943 481.036 197.003 482.346 196.463C483.646 195.923 484.586 194.813 485.146 193.133C485.706 191.473 485.606 190.053 484.876 188.863C484.136 187.683 482.826 186.773 480.936 186.153L474.666 184.063L471.276 194.233ZM478.216 212.373L476.306 202.203L475.666 201.993L469.396 199.903L466.546 208.493L459.756 206.233L469.746 176.183L482.796 180.523C486.716 181.823 489.446 183.743 490.986 186.273C492.536 188.803 492.746 191.723 491.646 195.053C490.876 197.363 489.736 199.193 488.226 200.523C486.726 201.853 484.906 202.643 482.796 202.883L485.906 214.933L478.216 212.383V212.373Z" fill="white"></path>
  <path d="M514.236 194.773L533.986 206.083L530.996 211.203L517.496 203.473L513.626 210.223L526.026 217.323L523.056 222.513L510.656 215.403L504.706 225.803L498.496 222.253L514.236 194.773Z" fill="white"></path>
  <path d="M576.546 257.003C576.756 255.323 576.616 253.703 576.156 252.123C575.686 250.553 574.956 249.223 573.946 248.153C572.726 246.853 571.286 245.973 569.636 245.493C567.986 245.013 566.316 244.993 564.646 245.403C562.966 245.823 561.456 246.663 560.116 247.923C558.776 249.183 557.836 250.643 557.306 252.303C556.776 253.963 556.696 255.623 557.056 257.323C557.426 259.003 558.216 260.503 559.436 261.793C560.406 262.823 561.646 263.643 563.136 264.243C564.636 264.853 566.196 265.163 567.816 265.223L567.366 271.413C564.936 271.383 562.566 270.883 560.256 269.933C557.946 268.973 556.006 267.653 554.436 265.983C552.316 263.723 550.906 261.173 550.206 258.353C549.516 255.523 549.586 252.733 550.416 249.953C551.246 247.183 552.786 244.743 555.026 242.643C557.246 240.553 559.766 239.203 562.576 238.583C565.396 237.963 568.196 238.103 570.996 239.013C573.796 239.923 576.266 241.523 578.416 243.803C579.986 245.473 581.196 247.443 582.026 249.723C582.866 252.003 583.226 254.273 583.116 256.523L576.536 256.993L576.546 257.003Z" fill="white"></path>
  <path d="M598.047 269.023L601.857 275.073L580.357 288.643L587.617 300.123L582.327 303.453L571.267 285.933L598.047 269.023Z" fill="white"></path>
  <path d="M603.346 316.233C601.236 317.043 599.786 318.283 599.026 319.953C598.256 321.613 598.266 323.443 599.026 325.443C599.776 327.393 600.966 328.703 602.626 329.393C604.276 330.083 606.186 330.013 608.316 329.193L625.676 322.523L628.246 329.193L610.886 335.863C608.286 336.863 605.846 337.193 603.536 336.873C601.226 336.543 599.186 335.593 597.406 334.023C595.616 332.443 594.216 330.323 593.186 327.643C592.156 324.973 591.776 322.433 592.036 320.043C592.296 317.643 593.166 315.553 594.666 313.753C596.156 311.953 598.196 310.553 600.786 309.553L618.146 302.883L620.716 309.563L603.356 316.233H603.346Z" fill="white"></path>
  <path d="M611.397 368.163C611.697 369.823 612.267 371.063 613.107 371.893C613.947 372.733 614.957 373.033 616.147 372.823C617.267 372.613 618.077 371.983 618.557 370.913C619.037 369.843 619.117 368.483 618.787 366.823L617.537 359.873L610.147 361.213L611.397 368.163ZM624.267 365.843C624.507 367.183 625.007 368.163 625.747 368.813C626.497 369.463 627.417 369.683 628.507 369.483C629.577 369.293 630.337 368.763 630.797 367.903C631.257 367.043 631.347 365.943 631.077 364.613L629.827 357.663L623.017 358.893L624.267 365.843ZM636.887 363.933C637.507 367.383 637.297 370.223 636.267 372.463C635.227 374.703 633.517 376.043 631.107 376.473C629.447 376.783 627.907 376.553 626.507 375.813C625.107 375.073 624.027 373.913 623.287 372.323C623.257 374.413 622.647 376.153 621.447 377.573C620.247 378.983 618.627 379.883 616.567 380.243C613.897 380.723 611.607 380.053 609.677 378.223C607.757 376.393 606.467 373.673 605.807 370.043L603.137 355.223L634.307 349.593L636.887 363.933Z" fill="white"></path>
  <path d="M532.286 574.953L539.716 568.523L541.736 572.003L530.996 581.303L519.486 561.033L522.796 558.173L532.286 574.963V574.953ZM504.396 576.473C503.136 577.283 502.146 578.363 501.436 579.723C500.726 581.083 500.386 582.523 500.426 584.043C500.466 585.563 500.886 586.963 501.706 588.243C502.426 589.363 503.336 590.213 504.446 590.793C505.556 591.373 506.726 591.643 507.966 591.603C509.206 591.563 510.376 591.183 511.476 590.483C512.726 589.683 513.686 588.613 514.366 587.273C515.046 585.933 515.366 584.503 515.316 582.983C515.266 581.463 514.836 580.053 514.016 578.773C513.296 577.653 512.396 576.803 511.306 576.203C510.216 575.613 509.066 575.333 507.846 575.373C506.636 575.413 505.486 575.783 504.406 576.473H504.396ZM502.556 573.003C504.336 571.863 506.186 571.223 508.106 571.093C510.026 570.963 511.826 571.323 513.506 572.193C515.186 573.053 516.566 574.343 517.666 576.043C518.926 578.003 519.566 580.133 519.586 582.433C519.616 584.733 519.066 586.913 517.956 588.993C516.836 591.063 515.276 592.743 513.256 594.043C511.476 595.183 509.626 595.813 507.696 595.923C505.766 596.033 503.956 595.663 502.286 594.793C500.606 593.933 499.226 592.643 498.126 590.943C496.866 588.983 496.226 586.853 496.186 584.563C496.156 582.273 496.696 580.103 497.826 578.043C498.956 575.993 500.536 574.313 502.566 573.003H502.556ZM478.296 591.063C476.926 591.683 475.796 592.613 474.896 593.853C473.996 595.093 473.456 596.473 473.266 597.973C473.076 599.483 473.296 600.933 473.926 602.313C474.476 603.523 475.256 604.493 476.266 605.233C477.276 605.973 478.406 606.403 479.636 606.543C480.866 606.683 482.076 606.473 483.266 605.943C484.616 605.333 485.726 604.413 486.586 603.183C487.456 601.953 487.976 600.583 488.146 599.073C488.326 597.563 488.096 596.113 487.466 594.723C486.916 593.513 486.146 592.533 485.156 591.793C484.166 591.053 483.066 590.613 481.856 590.473C480.646 590.343 479.456 590.533 478.286 591.063H478.296ZM476.986 587.363C478.906 586.493 480.826 586.133 482.746 586.283C484.666 586.433 486.396 587.053 487.926 588.153C489.466 589.253 490.646 590.723 491.476 592.563C492.436 594.683 492.766 596.883 492.456 599.163C492.146 601.443 491.296 603.523 489.886 605.413C488.486 607.303 486.686 608.743 484.506 609.723C482.586 610.593 480.656 610.943 478.726 610.773C476.796 610.603 475.066 609.973 473.536 608.873C471.996 607.773 470.816 606.303 469.986 604.463C469.026 602.343 468.696 600.143 468.996 597.873C469.296 595.603 470.146 593.533 471.566 591.663C472.976 589.793 474.786 588.363 476.986 587.363ZM454.976 596.033L459.216 594.833L461.066 618.063L456.826 619.263L456.086 609.833L445.126 612.943L445.866 622.373L441.656 623.573L439.806 600.343L444.016 599.143L444.796 609.073L455.756 605.963L454.976 596.033ZM422.546 602.843C424.176 602.723 425.756 602.923 427.296 603.463C428.836 604.003 430.156 604.803 431.266 605.883L428.646 609.293C427.836 608.413 426.896 607.753 425.826 607.313C424.756 606.873 423.666 606.693 422.556 606.773C421.036 606.893 419.656 607.373 418.406 608.213C417.156 609.063 416.206 610.153 415.526 611.493C414.856 612.833 414.576 614.263 414.686 615.783C414.786 617.083 415.176 618.253 415.856 619.283C416.536 620.313 417.426 621.093 418.526 621.633C419.626 622.173 420.826 622.393 422.126 622.293C423.216 622.213 424.306 621.883 425.406 621.323C426.506 620.763 427.496 620.013 428.366 619.103L430.896 621.793C429.666 623.113 428.246 624.183 426.636 625.013C425.026 625.843 423.426 626.323 421.816 626.443C419.756 626.603 417.866 626.273 416.156 625.453C414.446 624.633 413.066 623.443 412.026 621.883C410.976 620.323 410.376 618.533 410.226 616.523C410.046 614.203 410.486 612.023 411.546 610.003C412.606 607.983 414.106 606.323 416.046 605.043C417.986 603.763 420.156 603.033 422.546 602.843ZM394.766 603.823C396.266 603.863 397.706 604.113 399.086 604.583C400.466 605.053 401.686 605.683 402.726 606.473L400.506 610.203C399.436 609.453 398.306 608.883 397.116 608.473C395.926 608.063 394.866 607.843 393.936 607.823C392.846 607.793 391.966 607.983 391.296 608.393C390.626 608.803 390.276 609.383 390.256 610.143C390.246 610.733 390.426 611.223 390.806 611.623C391.186 612.023 391.666 612.353 392.236 612.603C392.806 612.853 393.606 613.163 394.646 613.513C396.026 613.983 397.146 614.433 398.006 614.873C398.866 615.313 399.596 615.923 400.196 616.713C400.796 617.503 401.086 618.513 401.046 619.753C401.006 621.343 400.556 622.703 399.706 623.853C398.846 624.993 397.696 625.863 396.246 626.443C394.796 627.023 393.176 627.293 391.396 627.253C389.636 627.213 387.946 626.833 386.326 626.133C384.706 625.423 383.336 624.493 382.216 623.333L384.496 619.663C385.516 620.753 386.696 621.623 388.056 622.263C389.416 622.903 390.706 623.243 391.946 623.273C393.256 623.303 394.286 623.073 395.036 622.583C395.786 622.093 396.176 621.383 396.196 620.473C396.206 619.883 396.026 619.393 395.646 619.003C395.266 618.613 394.776 618.283 394.186 618.023C393.596 617.753 392.786 617.463 391.776 617.133C390.396 616.683 389.266 616.243 388.396 615.823C387.526 615.403 386.786 614.793 386.186 614.023C385.586 613.243 385.296 612.233 385.336 610.993C385.376 609.533 385.796 608.253 386.606 607.143C387.416 606.033 388.536 605.193 389.956 604.613C391.376 604.043 392.976 603.773 394.756 603.823H394.766ZM359.046 603.613L348.086 600.503L345.206 606.103L355.166 608.933L353.436 612.413L343.446 609.573L339.246 617.783L335.036 616.583L345.676 595.843L360.816 600.143L359.046 603.613ZM321.856 599.803C323.626 600.603 325.176 600.813 326.516 600.443C327.856 600.073 328.866 599.133 329.546 597.623C329.996 596.633 329.986 595.733 329.536 594.913C329.076 594.103 328.206 593.403 326.916 592.813L322.186 590.673L317.156 597.683L321.856 599.813V599.803ZM333.766 598.663C332.876 600.623 331.616 602.103 329.976 603.073C328.336 604.053 326.476 604.463 324.396 604.313L324.456 612.583L319.936 610.543L320.366 603.323C320.196 603.273 319.946 603.173 319.606 603.013L314.876 600.873L310.886 606.453L306.896 604.653L320.476 585.713L329.166 589.643C331.486 590.693 333.036 591.993 333.826 593.563C334.616 595.123 334.586 596.833 333.756 598.673L333.766 598.663ZM303.116 591.793C300.966 594.013 298.566 595.293 295.916 595.653C293.256 596.003 290.626 595.343 288.026 593.683C285.736 592.213 284.296 590.503 283.716 588.553C283.136 586.603 283.466 584.653 284.706 582.713C285.126 582.053 285.606 581.453 286.136 580.913L295.556 571.123L299.236 573.483L289.816 583.273C289.476 583.603 289.146 584.013 288.836 584.503C288.116 585.623 287.916 586.723 288.216 587.803C288.516 588.883 289.286 589.833 290.536 590.633C292.006 591.573 293.526 591.943 295.106 591.733C296.686 591.533 298.126 590.763 299.416 589.423L308.856 579.653L312.566 582.033L303.126 591.803L303.116 591.793ZM282.496 560.403C283.636 561.383 284.586 562.503 285.346 563.743C286.116 564.983 286.656 566.243 286.956 567.513L282.876 568.983C282.526 567.723 282.016 566.563 281.366 565.493C280.706 564.423 280.026 563.583 279.326 562.963C278.506 562.253 277.706 561.833 276.926 561.723C276.146 561.613 275.506 561.843 275.006 562.413C274.626 562.853 274.446 563.353 274.486 563.913C274.526 564.463 274.686 565.023 274.966 565.583C275.246 566.143 275.676 566.883 276.246 567.813C277.016 569.053 277.596 570.113 277.976 571.003C278.366 571.883 278.536 572.823 278.506 573.813C278.466 574.803 278.046 575.763 277.236 576.703C276.196 577.903 274.986 578.673 273.596 579.013C272.206 579.353 270.766 579.283 269.276 578.813C267.786 578.343 266.366 577.523 265.016 576.353C263.686 575.203 262.616 573.833 261.816 572.263C261.016 570.693 260.556 569.103 260.426 567.493L264.516 566.113C264.606 567.603 264.976 569.023 265.606 570.383C266.246 571.743 267.026 572.823 267.966 573.643C268.956 574.503 269.896 574.973 270.786 575.073C271.676 575.173 272.426 574.873 273.026 574.183C273.406 573.743 273.576 573.243 273.536 572.703C273.486 572.163 273.326 571.593 273.036 571.013C272.746 570.433 272.316 569.693 271.746 568.793C270.966 567.573 270.376 566.513 269.966 565.633C269.566 564.753 269.376 563.823 269.406 562.833C269.436 561.853 269.856 560.893 270.666 559.953C271.616 558.853 272.766 558.133 274.096 557.783C275.426 557.443 276.826 557.503 278.286 557.953C279.746 558.413 281.146 559.223 282.496 560.393V560.403Z" fill="white"></path>
  <path d="M183.856 422.933C184.566 462.983 199.796 499.223 226.936 532.333" stroke="white" stroke-width="5.72" stroke-linecap="round" stroke-linejoin="round"></path>
  <path d="M617.916 421.973C617.206 462.023 601.976 498.263 574.836 531.373" stroke="white" stroke-width="5.72" stroke-linecap="round" stroke-linejoin="round"></path>
  <path d="M594.936 506.983C594.936 506.983 595.496 507.633 596.186 508.713C596.516 509.263 596.916 509.903 597.266 510.623C597.626 511.343 597.966 512.123 598.266 512.913C598.876 514.503 599.266 516.163 599.456 517.403C599.656 518.653 599.666 519.483 599.666 519.483C599.666 519.483 599.606 519.283 599.496 518.923C599.396 518.573 599.246 518.073 599.066 517.463C598.896 516.863 598.656 516.163 598.416 515.423C598.156 514.683 597.906 513.893 597.596 513.113C597.016 511.553 596.366 510.013 595.836 508.873C595.296 507.723 594.936 506.963 594.936 506.963V506.983ZM591.426 513.353C595.066 515.173 597.956 519.033 599.506 521.453C599.866 522.023 600.736 521.793 600.696 521.133C600.256 512.923 596.766 507.243 595.526 505.493L591.436 513.353H591.426Z" fill="white"></path>
  <path d="M594.936 506.983C594.936 506.983 595.496 507.633 596.186 508.713C596.516 509.263 596.916 509.903 597.266 510.623C597.626 511.343 597.966 512.123 598.266 512.913C598.876 514.503 599.266 516.163 599.456 517.403C599.656 518.653 599.666 519.483 599.666 519.483C599.666 519.483 599.606 519.283 599.496 518.923C599.396 518.573 599.246 518.073 599.066 517.463C598.896 516.863 598.656 516.163 598.416 515.423C598.156 514.683 597.906 513.893 597.596 513.113C597.016 511.553 596.366 510.013 595.836 508.873C595.296 507.723 594.936 506.963 594.936 506.963V506.983ZM591.426 513.353C595.066 515.173 597.956 519.033 599.506 521.453C599.866 522.023 600.736 521.793 600.696 521.133C600.256 512.923 596.766 507.243 595.526 505.493L591.436 513.353H591.426Z" stroke="white" stroke-width="0.5" stroke-miterlimit="2.61"></path>
  <path d="M584.367 522.773C584.367 522.773 584.717 523.253 585.117 524.043C585.307 524.443 585.537 524.913 585.737 525.433C585.937 525.953 586.117 526.513 586.277 527.073C586.587 528.213 586.747 529.373 586.797 530.243C586.847 531.113 586.797 531.693 586.797 531.693C586.797 531.693 586.767 531.553 586.717 531.303C586.667 531.053 586.597 530.703 586.517 530.273C586.437 529.843 586.317 529.353 586.207 528.823C586.077 528.303 585.957 527.733 585.797 527.183C585.497 526.073 585.157 524.973 584.867 524.143C584.567 523.313 584.377 522.763 584.377 522.763L584.367 522.773ZM581.537 526.923C583.927 528.413 585.657 531.263 586.557 533.023C586.767 533.443 587.377 533.343 587.397 532.883C587.637 527.203 585.607 523.073 584.867 521.783L581.537 526.923Z" fill="white"></path>
  <path d="M584.367 522.773C584.367 522.773 584.717 523.253 585.117 524.043C585.307 524.443 585.537 524.913 585.737 525.433C585.937 525.953 586.117 526.513 586.277 527.073C586.587 528.213 586.747 529.373 586.797 530.243C586.847 531.113 586.797 531.693 586.797 531.693C586.797 531.693 586.767 531.553 586.717 531.303C586.667 531.053 586.597 530.703 586.517 530.273C586.437 529.843 586.317 529.353 586.207 528.823C586.077 528.303 585.957 527.733 585.797 527.183C585.497 526.073 585.157 524.973 584.867 524.143C584.567 523.313 584.377 522.763 584.377 522.763L584.367 522.773ZM581.537 526.923C583.927 528.413 585.657 531.263 586.557 533.023C586.767 533.443 587.377 533.343 587.397 532.883C587.637 527.203 585.607 523.073 584.867 521.783L581.537 526.923Z" stroke="white" stroke-width="0.5" stroke-miterlimit="2.61"></path>
  <path d="M183.847 421.973C184.557 462.023 199.787 498.263 226.927 531.373" stroke="white" stroke-width="5.72" stroke-linecap="round" stroke-linejoin="round"></path>
  <path d="M206.827 506.983C206.827 506.983 206.267 507.633 205.577 508.713C205.247 509.263 204.847 509.903 204.497 510.623C204.137 511.343 203.797 512.123 203.497 512.913C202.887 514.503 202.497 516.163 202.307 517.403C202.107 518.653 202.097 519.483 202.097 519.483C202.097 519.483 202.157 519.283 202.267 518.923C202.367 518.573 202.517 518.073 202.697 517.463C202.867 516.863 203.107 516.163 203.347 515.423C203.607 514.683 203.857 513.893 204.167 513.113C204.747 511.553 205.397 510.013 205.927 508.873C206.467 507.723 206.827 506.963 206.827 506.963V506.983ZM210.337 513.353C206.697 515.173 203.807 519.033 202.267 521.453C201.907 522.023 201.037 521.793 201.077 521.133C201.517 512.923 205.007 507.243 206.247 505.493L210.337 513.353Z" fill="white"></path>
  <path d="M206.827 506.983C206.827 506.983 206.267 507.633 205.577 508.713C205.247 509.263 204.847 509.903 204.497 510.623C204.137 511.343 203.797 512.123 203.497 512.913C202.887 514.503 202.497 516.163 202.307 517.403C202.107 518.653 202.097 519.483 202.097 519.483C202.097 519.483 202.157 519.283 202.267 518.923C202.367 518.573 202.517 518.073 202.697 517.463C202.867 516.863 203.107 516.163 203.347 515.423C203.607 514.683 203.857 513.893 204.167 513.113C204.747 511.553 205.397 510.013 205.927 508.873C206.467 507.723 206.827 506.963 206.827 506.963V506.983ZM210.337 513.353C206.697 515.173 203.807 519.033 202.267 521.453C201.907 522.023 201.037 521.793 201.077 521.133C201.517 512.923 205.007 507.243 206.247 505.493L210.337 513.353Z" stroke="white" stroke-width="0.5" stroke-miterlimit="2.61"></path>
  <path d="M217.386 522.773C217.386 522.773 217.036 523.253 216.636 524.043C216.446 524.443 216.216 524.913 216.016 525.433C215.816 525.953 215.636 526.513 215.476 527.073C215.166 528.213 215.006 529.373 214.956 530.243C214.906 531.113 214.956 531.693 214.956 531.693C214.956 531.693 214.986 531.553 215.036 531.303C215.086 531.053 215.156 530.703 215.236 530.273C215.316 529.843 215.436 529.353 215.546 528.823C215.676 528.303 215.796 527.733 215.956 527.183C216.256 526.073 216.596 524.973 216.886 524.143C217.186 523.313 217.376 522.763 217.376 522.763L217.386 522.773ZM220.226 526.923C217.836 528.413 216.106 531.263 215.206 533.023C214.996 533.443 214.386 533.343 214.366 532.883C214.126 527.203 216.156 523.073 216.896 521.783L220.226 526.923Z" fill="white"></path>
  <path d="M217.386 522.773C217.386 522.773 217.036 523.253 216.636 524.043C216.446 524.443 216.216 524.913 216.016 525.433C215.816 525.953 215.636 526.513 215.476 527.073C215.166 528.213 215.006 529.373 214.956 530.243C214.906 531.113 214.956 531.693 214.956 531.693C214.956 531.693 214.986 531.553 215.036 531.303C215.086 531.053 215.156 530.703 215.236 530.273C215.316 529.843 215.436 529.353 215.546 528.823C215.676 528.303 215.796 527.733 215.956 527.183C216.256 526.073 216.596 524.973 216.886 524.143C217.186 523.313 217.376 522.763 217.376 522.763L217.386 522.773ZM220.226 526.923C217.836 528.413 216.106 531.263 215.206 533.023C214.996 533.443 214.386 533.343 214.366 532.883C214.126 527.203 216.156 523.073 216.896 521.783L220.226 526.923Z" stroke="white" stroke-width="0.5" stroke-miterlimit="2.61"></path>
</svg>
