<svg xmlns="http://www.w3.org/2000/svg" viewBox="0 0 283.46 283.46"><defs><style>.cls-1{fill:#fff;}.cls-2{fill:#1d1d1b;}</style></defs><title>Recurso 11</title><g id="Capa_2" data-name="Capa 2"><g id="PEGATINAS"><circle class="cls-1" cx="141.73" cy="141.73" r="141.73"/><circle class="cls-1" cx="141.73" cy="141.73" r="137.83"/><path class="cls-2" d="M35.51,163.69l-8,4.93-.68-2.25,1.73-1-.59-3-1.83-.27-.45-2.32,9.35,1.58Zm-3-.66L30,162.66l.33,1.7Z"/><path class="cls-2" d="M28.26,171.64l5.12-3.78,1.19,1.95L31.22,172l3.77.23.63,2.28-6.77-.74Z"/><path class="cls-2" d="M40.67,180.31,32,183.36l-.39-1.13.31-.49a3.27,3.27,0,0,1-.69-.65,2.73,2.73,0,0,1-.46-.81,3.32,3.32,0,0,1,0-2.5,3.22,3.22,0,0,1,2-1.66,3.33,3.33,0,0,1,2.69,0,3.38,3.38,0,0,1,1.63,2,2.47,2.47,0,0,1,.15.83l2.5-.87Zm-8-1.23a1,1,0,0,0-.08.94,1,1,0,0,0,.37.48l2.53-.89a1.7,1.7,0,0,0-.07-.7.88.88,0,0,0-.64-.57,1.87,1.87,0,0,0-1.17.09A1.72,1.72,0,0,0,32.67,179.08Z"/><path class="cls-2" d="M36.93,184.32l1.33-1.25a7.44,7.44,0,0,1,.9,1,6.33,6.33,0,0,1,.75,1.3,2.61,2.61,0,0,1,.12,2.07,2.69,2.69,0,0,1-1.51,1.38l-3.6,1.54-.46-1,.34-.88a1.81,1.81,0,0,1-1.3-1,2.48,2.48,0,0,1-.16-1.86,2.14,2.14,0,0,1,1.23-1.18c1.14-.49,2,0,2.69,1.55l.29.69a.76.76,0,0,0,.35-1,3.62,3.62,0,0,0-.4-.66A6.13,6.13,0,0,0,36.93,184.32Zm-1.54,1.91a.41.41,0,0,0-.24.24.38.38,0,0,0,0,.33,1.35,1.35,0,0,0,.66.63l.55-.24-.29-.67a.52.52,0,0,0-.28-.3A.51.51,0,0,0,35.39,186.23Z"/><path class="cls-2" d="M36.28,193.2a1.19,1.19,0,1,1,2.14-1,1.11,1.11,0,0,1,.06.91,1.15,1.15,0,0,1-.61.69,1.18,1.18,0,0,1-.92.06A1.15,1.15,0,0,1,36.28,193.2Z"/><path class="cls-2" d="M39.37,199.16,47,194.62l3,5.06-1.49,1.15-1.91-3.21-1.39.82,1.39,2.35-1.49,1.15-1.51-2.54-1.42.85,2,3.35-1.49,1.15Z"/><path class="cls-2" d="M43.74,206.27l7.52-5.08,1.45,1.89-7.65,5.16Z"/><path class="cls-2" d="M52.91,214.43l.44-2.22L50,214.94l-1.51-1.84,6.85-5.65,1,1.26-.91,4.22,4.17-.26,1,1.22-6.85,5.65-1.51-1.83L55.63,215l-2,.1Z"/><path class="cls-2" d="M59,218.87l.79-1.64a7.24,7.24,0,0,1,1.22.64,6.76,6.76,0,0,1,1.16.95,2.59,2.59,0,0,1,.85,1.89,2.7,2.7,0,0,1-.92,1.83l-2.82,2.72-.8-.82v-.94A1.8,1.8,0,0,1,57,223a2.41,2.41,0,0,1-.81-1.69,2.12,2.12,0,0,1,.72-1.54q1.34-1.29,3.06.5l.53.54a.84.84,0,0,0,.21-.57.86.86,0,0,0-.26-.53,3,3,0,0,0-.61-.47A4.3,4.3,0,0,0,59,218.87Zm-.76,2.33a.44.44,0,0,0,0,.62,1.42,1.42,0,0,0,.84.36l.43-.42-.51-.53a.51.51,0,0,0-.37-.17A.48.48,0,0,0,58.27,221.2Z"/><path class="cls-2" d="M62.6,228.34l-1.75-1.61,4.28-4.65.88.81-.1,1a6.1,6.1,0,0,1,1.14.31,3,3,0,0,1,1,.56l-.93,1.73a3.31,3.31,0,0,0-.89-.56,3.71,3.71,0,0,0-1.06-.28Z"/><path class="cls-2" d="M65.12,230.59l4.09-4.84L71,227.29l-4.09,4.83Zm5.54-4.74a1.3,1.3,0,0,1-.15-1.8,1.28,1.28,0,0,1,.88-.46,1.21,1.21,0,0,1,.94.29,1.28,1.28,0,0,1,.46.89,1.25,1.25,0,0,1-.3.95,1.27,1.27,0,0,1-.88.44A1.32,1.32,0,0,1,70.66,225.85Z"/><path class="cls-2" d="M70.5,235l-1.9-1.43,3.81-5.06,1.12.85-.06.77a4.91,4.91,0,0,1,2.59.87,2.14,2.14,0,0,1,1,1.57,2.65,2.65,0,0,1-.61,1.77L74,237.57l-1.9-1.43,2.33-3.09a1,1,0,0,0,.2-.53.63.63,0,0,0-.29-.49,2.26,2.26,0,0,0-.54-.26,5.47,5.47,0,0,0-.7-.21Z"/><path class="cls-2" d="M82.19,239.89,79,237.8a1.17,1.17,0,0,0,.07.8,1.76,1.76,0,0,0,.67.7,3.71,3.71,0,0,0,1.7.58l-.32,1.71a3.52,3.52,0,0,1-1.21-.2,6,6,0,0,1-1.37-.66A4.81,4.81,0,0,1,77,239.35a3,3,0,0,1-.51-1.68,3.28,3.28,0,0,1,.57-1.77,3.61,3.61,0,0,1,1.35-1.27,3,3,0,0,1,1.67-.33,3.63,3.63,0,0,1,1.69.6A3,3,0,0,1,83,236.17a2.88,2.88,0,0,1,.22,1.56,3.84,3.84,0,0,1-.62,1.58Zm-2.65-3.11,1.38.89a1,1,0,0,0,.16-.63.7.7,0,0,0-.36-.57.78.78,0,0,0-.64-.09A.82.82,0,0,0,79.54,236.78Z"/><path class="cls-2" d="M84.46,244.14,82.39,243l3.11-5.5,1,.59.13.95a5.29,5.29,0,0,1,1.18,0,2.65,2.65,0,0,1,1,.33l-.51,1.89a3.81,3.81,0,0,0-2.09-.37Z"/><path class="cls-2" d="M93.94,247.47a3.06,3.06,0,0,1-1.66.44,4.54,4.54,0,0,1-1.84-.48,3.73,3.73,0,0,1-1.94-1.89,3.13,3.13,0,0,1,.22-2.66,3.31,3.31,0,0,1,1.21-1.41A3.07,3.07,0,0,1,91.6,241a4.12,4.12,0,0,1,1.81.44,4.21,4.21,0,0,1,1.51,1.17,2.92,2.92,0,0,1,.63,1.6,3.6,3.6,0,0,1-.4,1.88A3.19,3.19,0,0,1,93.94,247.47Zm-1.71-1.69a1.49,1.49,0,0,0,.71-.78,1.77,1.77,0,0,0,.2-1.09.92.92,0,0,0-.55-.73,1,1,0,0,0-.93,0,1.52,1.52,0,0,0-.73.8,1.63,1.63,0,0,0-.2,1.06,1,1,0,0,0,.58.7A1.12,1.12,0,0,0,92.23,245.78Z"/><path class="cls-2" d="M100.24,251.5l1.66-4.44-1.64.08-.2-2.11,3.52-.17,1.48.56-2.6,6.91Z"/><path class="cls-2" d="M107.52,251.52l-1.91-.58,1.71-4.75,4.92,1.51-.77,1.71-2.78-.85-.25.81a1.57,1.57,0,0,1,.83,0,2.74,2.74,0,0,1,1.29.8,2.55,2.55,0,0,1,.58,1.27A3.22,3.22,0,0,1,111,253a3,3,0,0,1-.85,1.39,2.73,2.73,0,0,1-1.42.7,3.74,3.74,0,0,1-1.79-.15,5.53,5.53,0,0,1-1.46-.73,5.93,5.93,0,0,1-1.24-1.13l1.63-1.26a7.59,7.59,0,0,0,.88.78,2.55,2.55,0,0,0,.82.42,1.26,1.26,0,0,0,.86,0,.93.93,0,0,0,.52-.62.9.9,0,0,0,0-.69.8.8,0,0,0-.5-.41.74.74,0,0,0-.53,0A1,1,0,0,0,107.52,251.52Z"/><path class="cls-2" d="M113.88,253.75a1.08,1.08,0,0,1,.74.58,1.46,1.46,0,0,1,.09,1.06,2.28,2.28,0,0,1-.93,1.3,3.36,3.36,0,0,1-1.67.67l-.2-1.13a2.34,2.34,0,0,0,.48-.2.8.8,0,0,0,.33-.28,1.25,1.25,0,0,1-.28-.52,1.15,1.15,0,0,1,0-.61,1.24,1.24,0,0,1,.55-.72A1.13,1.13,0,0,1,113.88,253.75Z"/><path class="cls-2" d="M127.73,249.9l-1,1.48a10.07,10.07,0,0,0-1-.48,3.65,3.65,0,0,0-.79-.21,1.76,1.76,0,0,0-1.07.17,2.48,2.48,0,0,0-.94.81,3.16,3.16,0,0,0-.53,1.33,3.07,3.07,0,0,0,.09,1.43,2.21,2.21,0,0,0,.67,1,2,2,0,0,0,1,.49,3.19,3.19,0,0,0,1.74-.21l.61,1.9a4.39,4.39,0,0,1-1.3.27,5.66,5.66,0,0,1-1.43-.05,5,5,0,0,1-2.33-1,4,4,0,0,1-1.32-1.84,4.94,4.94,0,0,1-.16-2.44,4.88,4.88,0,0,1,1-2.28,4.3,4.3,0,0,1,1.87-1.37,4.64,4.64,0,0,1,2.41-.21,5.2,5.2,0,0,1,1.34.42A4.24,4.24,0,0,1,127.73,249.9Z"/><path class="cls-2" d="M129,254.12l-.46-1.76a7.41,7.41,0,0,1,2.83-.34,2.61,2.61,0,0,1,1.88.88,2.69,2.69,0,0,1,.49,2l-.36,3.9-1.15-.1-.61-.72a1.8,1.8,0,0,1-1.49.66,2.45,2.45,0,0,1-1.72-.75,2.13,2.13,0,0,1-.45-1.64c.12-1.23,1-1.77,2.65-1.61l.75.07a.78.78,0,0,0-.22-.57.8.8,0,0,0-.53-.24,3.59,3.59,0,0,0-.77,0A5.81,5.81,0,0,0,129,254.12Zm.94,2.27a.42.42,0,0,0,.1.33.4.4,0,0,0,.29.15,1.42,1.42,0,0,0,.87-.27l0-.6-.73-.07a.53.53,0,0,0-.39.11A.49.49,0,0,0,130,256.39Z"/><path class="cls-2" d="M135.54,258.9l.38-9.07,2.38-.05-.39,9.22Z"/><path class="cls-2" d="M146.14,256.42l-3.85.06a1.16,1.16,0,0,0,.5.63,1.78,1.78,0,0,0,1,.21,3.7,3.7,0,0,0,1.73-.46l.69,1.6a3.58,3.58,0,0,1-1.12.5,6.33,6.33,0,0,1-1.51.22,4.91,4.91,0,0,1-2-.35,3,3,0,0,1-1.35-1.11,3.3,3.3,0,0,1-.52-1.78,3.51,3.51,0,0,1,.42-1.81,3,3,0,0,1,1.2-1.2,3.68,3.68,0,0,1,1.74-.45,3,3,0,0,1,1.66.42,2.83,2.83,0,0,1,1,1.17,3.93,3.93,0,0,1,.37,1.66Zm-3.94-1.11,1.65,0a1,1,0,0,0-.22-.61.72.72,0,0,0-.62-.28.76.76,0,0,0-.57.29A.83.83,0,0,0,142.2,255.31Z"/><path class="cls-2" d="M152,252.53l.35,1.85-1.87.13.11,1.56a.9.9,0,0,0,.25.61.71.71,0,0,0,.56.19,1.88,1.88,0,0,0,.89-.32l.79,1.57a2.31,2.31,0,0,1-.74.44,3.59,3.59,0,0,1-1,.25,3.82,3.82,0,0,1-1.48-.19,2.42,2.42,0,0,1-1.15-.77,2.31,2.31,0,0,1-.51-1.34l-.13-1.83-1,.07-.13-1.86,1-.07-.12-1.71,2.35-.49.14,2Z"/><path class="cls-2" d="M154.66,254.09l-.84-1.61a7.07,7.07,0,0,1,1.23-.59,6.52,6.52,0,0,1,1.46-.37,2.61,2.61,0,0,1,2,.44,2.65,2.65,0,0,1,.92,1.83l.52,3.88-1.14.15-.76-.55a1.78,1.78,0,0,1-1.31,1,2.41,2.41,0,0,1-1.83-.35,2.11,2.11,0,0,1-.81-1.5c-.16-1.22.58-1.95,2.22-2.16l.75-.1a.84.84,0,0,0-.34-.51.83.83,0,0,0-.57-.11,3.39,3.39,0,0,0-.74.21A5.67,5.67,0,0,0,154.66,254.09Zm1.42,2a.45.45,0,0,0,.17.3.45.45,0,0,0,.32.09,1.34,1.34,0,0,0,.78-.46l-.08-.6-.72.1a.54.54,0,0,0-.37.19A.56.56,0,0,0,156.08,256.09Z"/><path class="cls-2" d="M169.22,246.35l2.08,9-1.17.27-.44-.36a3.88,3.88,0,0,1-.73.61,2.44,2.44,0,0,1-.86.37,3.3,3.3,0,0,1-2.48-.28,3.22,3.22,0,0,1-1.43-2.2,3.34,3.34,0,0,1,.31-2.67,3.4,3.4,0,0,1,2.19-1.4,2.46,2.46,0,0,1,.85-.06l-.6-2.58Zm-2.1,7.83a1.06,1.06,0,0,0,.93.18,1,1,0,0,0,.51-.32l-.6-2.61a1.66,1.66,0,0,0-.7,0,.87.87,0,0,0-.64.57,1.86,1.86,0,0,0,0,1.18A1.8,1.8,0,0,0,167.12,254.18Z"/><path class="cls-2" d="M178.55,250.49l-3.68,1.13a1.13,1.13,0,0,0,.65.46,1.69,1.69,0,0,0,1-.06,3.68,3.68,0,0,0,1.53-.92l1.11,1.34a3.57,3.57,0,0,1-.94.8,6.16,6.16,0,0,1-1.38.63,5,5,0,0,1-2,.21,3,3,0,0,1-1.62-.69,3.18,3.18,0,0,1-1-1.57,3.48,3.48,0,0,1-.11-1.85,3,3,0,0,1,.82-1.49,3.65,3.65,0,0,1,1.55-.91,3,3,0,0,1,1.71-.06,2.76,2.76,0,0,1,1.33.84,3.81,3.81,0,0,1,.82,1.48Zm-4.09,0L176,250a1,1,0,0,0-.37-.52.7.7,0,0,0-.68-.09.76.76,0,0,0-.47.43A.83.83,0,0,0,174.46,250.52Z"/><path class="cls-2" d="M188.05,245.92l-2.73,1.14,1.29,3.1-2.19.91L181,242.89l5.32-2.22.92,1.64-3.33,1.39.69,1.63,2.52-1.05Z"/><path class="cls-2" d="M189.82,244.12l-1.32-1.26a6.38,6.38,0,0,1,1-1,6.63,6.63,0,0,1,1.26-.82,2.6,2.6,0,0,1,2.06-.23,2.67,2.67,0,0,1,1.46,1.43l1.73,3.52-1,.51-.89-.29a1.78,1.78,0,0,1-.93,1.34,2.4,2.4,0,0,1-1.85.26,2.1,2.1,0,0,1-1.24-1.16c-.55-1.11-.08-2,1.4-2.76l.68-.34a.88.88,0,0,0-.48-.37.86.86,0,0,0-.58.08,3.7,3.7,0,0,0-.64.44A5.8,5.8,0,0,0,189.82,244.12Zm2,1.44a.47.47,0,0,0,.25.23.39.39,0,0,0,.33,0,1.27,1.27,0,0,0,.59-.68l-.26-.54-.66.32a.55.55,0,0,0-.28.3A.47.47,0,0,0,191.81,245.56Z"/><path class="cls-2" d="M205.14,235.71l2.12,3.49-2,1.24-2-3.3a1.06,1.06,0,0,0-.38-.42c-.13-.08-.31-.05-.53.09a1.84,1.84,0,0,0-.4.38,5.1,5.1,0,0,0-.44.56l.09.14,2.12,3.49-2,1.24-2-3.3a1.17,1.17,0,0,0-.38-.43.53.53,0,0,0-.53.1,2.11,2.11,0,0,0-.41.38,6.26,6.26,0,0,0-.44.56l2.21,3.64-2,1.24-3.29-5.42,1.2-.73.7.34a4.88,4.88,0,0,1,1.7-2,2,2,0,0,1,1.95-.27,4.57,4.57,0,0,1,1.64-1.91Q203.86,233.61,205.14,235.71Z"/><path class="cls-2" d="M207,234.13l-1.51-1a6.77,6.77,0,0,1,.8-1.12,6.54,6.54,0,0,1,1.09-1,2.54,2.54,0,0,1,2-.58,2.67,2.67,0,0,1,1.69,1.15l2.32,3.16-.93.68-.93-.13a1.8,1.8,0,0,1-.68,1.49,2.45,2.45,0,0,1-1.78.58,2.12,2.12,0,0,1-1.42-.93q-1.09-1.5.9-3l.61-.45a.86.86,0,0,0-.54-.29.83.83,0,0,0-.56.19,3,3,0,0,0-.55.54A5.06,5.06,0,0,0,207,234.13Zm2.21,1.06a.42.42,0,0,0,.61.11,1.39,1.39,0,0,0,.47-.78l-.36-.49-.59.44a.51.51,0,0,0-.22.34A.49.49,0,0,0,209.17,235.19Z"/><path class="cls-2" d="M216.8,231.89,215,233.4l-4-4.87.92-.75.93.22a6.22,6.22,0,0,1,.46-1.09,3,3,0,0,1,.68-.87l1.59,1.16a3.29,3.29,0,0,0-.67.81,3.74,3.74,0,0,0-.42,1Z"/><path class="cls-2" d="M216.93,226.21l-1.62-.84a6.43,6.43,0,0,1,.67-1.19,6.34,6.34,0,0,1,1-1.14,2.55,2.55,0,0,1,1.91-.8,2.64,2.64,0,0,1,1.81.95l2.66,2.88-.85.78-.94,0a1.8,1.8,0,0,1-.5,1.55,2.51,2.51,0,0,1-1.71.78,2.13,2.13,0,0,1-1.52-.77c-.84-.9-.65-1.92.56-3l.56-.52a.86.86,0,0,0-.57-.22.82.82,0,0,0-.53.25,3.55,3.55,0,0,0-.49.59A4.38,4.38,0,0,0,216.93,226.21Zm2.31.81a.44.44,0,0,0,.31.15.41.41,0,0,0,.31-.12,1.31,1.31,0,0,0,.37-.82l-.4-.44-.54.49a.54.54,0,0,0-.19.37A.52.52,0,0,0,219.24,227Z"/><path class="cls-2" d="M224.15,222.51a1.06,1.06,0,0,1,.88-.34,1.53,1.53,0,0,1,1,.45,2.39,2.39,0,0,1,.65,1.47,3.38,3.38,0,0,1-.28,1.77l-1.07-.39a2.72,2.72,0,0,0,.07-.53.79.79,0,0,0-.07-.42,1.22,1.22,0,0,1-.6,0,1.13,1.13,0,0,1-.53-.3,1.19,1.19,0,0,1-.34-.83A1.12,1.12,0,0,1,224.15,222.51Z"/><path class="cls-2" d="M234.2,214l-4.08,4.89-6.82-5.68,1.52-1.83,5.39,4.49,2.41-2.89Z"/><path class="cls-2" d="M232.09,209.76l-1.76-.5a7.36,7.36,0,0,1,.43-1.31,6.32,6.32,0,0,1,.73-1.3,2.55,2.55,0,0,1,1.71-1.16,2.69,2.69,0,0,1,2,.58l3.17,2.3-.68.93-.93.17a1.79,1.79,0,0,1-.19,1.62,2.42,2.42,0,0,1-1.52,1.09,2.11,2.11,0,0,1-1.64-.45c-1-.72-1-1.76,0-3.09l.44-.62a.84.84,0,0,0-.6-.1.81.81,0,0,0-.47.34,3.26,3.26,0,0,0-.36.68A4.28,4.28,0,0,0,232.09,209.76Zm2.43.34a.4.4,0,0,0,.33.09.43.43,0,0,0,.28-.18,1.31,1.31,0,0,0,.2-.88l-.48-.35-.43.59a.55.55,0,0,0-.11.4A.45.45,0,0,0,234.52,210.1Z"/><path class="cls-2" d="M240.82,204.58l-1.26,2-5.37-3.35.74-1.2h.78a4.85,4.85,0,0,1,.64-2.64,2.12,2.12,0,0,1,1.48-1.11,2.62,2.62,0,0,1,1.81.45l3.47,2.17-1.26,2-3.27-2a.92.92,0,0,0-.55-.16.66.66,0,0,0-.46.33,2.56,2.56,0,0,0-.21.56,5.81,5.81,0,0,0-.15.72Z"/><path class="cls-2" d="M242,192.36l1.56,3.74,1.22-2.27,1.75.69L244,199.28,242.8,199l-1.63-3.82-1,1.84-1.75-.69,2.39-4.45Z"/><path class="cls-2" d="M243.67,190.77l-1.82-.15a8.15,8.15,0,0,1,.16-1.36,7.25,7.25,0,0,1,.46-1.43,2.63,2.63,0,0,1,1.46-1.47,2.71,2.71,0,0,1,2,.19l3.56,1.64-.48,1-.88.34a1.81,1.81,0,0,1,.13,1.63,2.44,2.44,0,0,1-1.28,1.37,2.11,2.11,0,0,1-1.69-.12c-1.13-.52-1.34-1.53-.65-3l.31-.69a.78.78,0,0,0-1,.45,3.76,3.76,0,0,0-.21.74A5.29,5.29,0,0,0,243.67,190.77Zm2.45-.14a.41.41,0,0,0,.34,0,.39.39,0,0,0,.24-.23,1.35,1.35,0,0,0,0-.9l-.54-.25-.31.66a.5.5,0,0,0,0,.41A.46.46,0,0,0,246.12,190.63Z"/><path class="cls-2" d="M251.19,184l-.87,2.21-5.88-2.3.43-1.11.93-.25a4.85,4.85,0,0,1-.13-1.18,2.81,2.81,0,0,1,.17-1.09l1.95.24a3.51,3.51,0,0,0-.19,1,3.73,3.73,0,0,0,.12,1.08Z"/><path class="cls-2" d="M253.13,174.18a3,3,0,0,1,.67,1.59,4.47,4.47,0,0,1-.2,1.89,3.76,3.76,0,0,1-1.6,2.18,3.16,3.16,0,0,1-2.67.17,3.4,3.4,0,0,1-1.56-1,3.13,3.13,0,0,1-.72-1.59,4.5,4.5,0,0,1,1.12-3.51,3,3,0,0,1,1.5-.86,3.54,3.54,0,0,1,1.91.14A3.21,3.21,0,0,1,253.13,174.18Zm-1.43,1.94a1.43,1.43,0,0,0-.86-.59,1.78,1.78,0,0,0-1.11-.05.94.94,0,0,0-.65.65,1,1,0,0,0,.1.93,2,2,0,0,0,2,.65,1,1,0,0,0,.61-.67A1,1,0,0,0,251.7,176.12Z"/><path class="cls-2" d="M250.22,166.56l1.86.23-.45,1.83,1.52.38a.93.93,0,0,0,.65-.05.7.7,0,0,0,.36-.47,2,2,0,0,0,0-.95l1.73-.27a2.38,2.38,0,0,1,.19.85,3.13,3.13,0,0,1-.07,1,3.64,3.64,0,0,1-.63,1.35,2.58,2.58,0,0,1-1.09.85,2.33,2.33,0,0,1-1.44.07l-1.77-.44-.24.94-1.81-.44.24-1-1.66-.41.25-2.38,2,.49Z"/><path class="cls-2" d="M255.16,159.45l-.69,3.79a1.17,1.17,0,0,0,.71-.37,1.71,1.71,0,0,0,.39-.89,3.72,3.72,0,0,0-.11-1.78l1.7-.37a3.33,3.33,0,0,1,.27,1.2,5.53,5.53,0,0,1-.08,1.52,4.81,4.81,0,0,1-.72,1.87,3.06,3.06,0,0,1-1.36,1.11,3.34,3.34,0,0,1-1.85.15,3.6,3.6,0,0,1-1.69-.76,3,3,0,0,1-.94-1.42,3.58,3.58,0,0,1-.09-1.79,3,3,0,0,1,.73-1.55,2.88,2.88,0,0,1,1.36-.79,3.83,3.83,0,0,1,1.69,0Zm-1.86,3.64.3-1.62a1.15,1.15,0,0,0-.65.1.7.7,0,0,0-.39.55.77.77,0,0,0,.17.62A.81.81,0,0,0,253.3,163.09Z"/><path class="cls-2" d="M141.73,9C68.56,9,9,68.56,9,141.73S68.56,274.44,141.73,274.44s132.71-59.53,132.71-132.71S214.91,9,141.73,9Zm0,8.49A124.22,124.22,0,1,1,17.51,141.73,124.37,124.37,0,0,1,141.73,17.51Z"/><polygon class="cls-2" points="68.35 146.46 68.35 145.05 63.99 145.05 63.99 153.38 68.47 153.38 68.47 151.97 65.58 151.97 65.58 149.78 67.69 149.78 67.69 148.37 65.58 148.37 65.58 146.46 68.35 146.46"/><path class="cls-2" d="M71.67,152.32a1.06,1.06,0,0,1-1.06-1l-1.31.36c.7,1.57,1.49,1.79,2.37,1.79a1.86,1.86,0,0,0,2.09-1.91c0-1.87-2.84-1.89-2.84-2.86a.57.57,0,0,1,.59-.57,1.08,1.08,0,0,1,1,.86l1.2-.46A2.25,2.25,0,0,0,71.52,147a1.78,1.78,0,0,0-2,1.75c0,2.12,2.84,1.83,2.84,3C72.37,152.11,72.11,152.32,71.67,152.32Z"/><path class="cls-2" d="M74.82,145.67v1.71h-.58v1.18h.58v3.69c0,.9.62,1.25,1.57,1.25a4.57,4.57,0,0,0,.83-.06v-1.22h-.29c-.39,0-.65-.15-.65-.46v-3.21h.93v-1.18h-.93v-1.71Z"/><rect class="cls-2" x="78.17" y="151.74" width="1.64" height="1.64"/><polygon class="cls-2" points="200.49 153.5 200.49 146.45 198.2 146.45 197.93 147.73 198.94 147.73 198.94 153.5 200.49 153.5"/><path class="cls-2" d="M206.06,153.5l1.19-1.7a8.64,8.64,0,0,0,.7-1.24,3.65,3.65,0,0,0,.42-1.66,2.55,2.55,0,0,0-.71-1.86,2.44,2.44,0,0,0-1.82-.72,2.81,2.81,0,0,0-2,.72,2.25,2.25,0,0,0-.79,1.75,2.37,2.37,0,0,0,.64,1.69,2.08,2.08,0,0,0,1.58.68l.64,0-1.76,2.39Zm-.3-3.53a1,1,0,0,1-.76-.31,1.06,1.06,0,0,1-.31-.78,1.09,1.09,0,0,1,.31-.78,1,1,0,0,1,.74-.34,1.1,1.1,0,0,1,.81.33,1.09,1.09,0,0,1,.32.79,1.11,1.11,0,0,1-1.11,1.09Z"/><path class="cls-2" d="M212.08,153.5l1.19-1.7a9.73,9.73,0,0,0,.7-1.24,3.63,3.63,0,0,0,.41-1.66,2.54,2.54,0,0,0-.7-1.86,2.45,2.45,0,0,0-1.83-.72,2.81,2.81,0,0,0-2,.72,2.25,2.25,0,0,0-.79,1.75,2.37,2.37,0,0,0,.64,1.69,2.08,2.08,0,0,0,1.58.68l.64,0-1.76,2.39Zm-.3-3.53a1,1,0,0,1-.76-.31,1.06,1.06,0,0,1-.31-.78,1.09,1.09,0,0,1,.31-.78,1,1,0,0,1,.74-.34,1.1,1.1,0,0,1,.81.33,1.09,1.09,0,0,1,.32.79,1,1,0,0,1-.33.77A1.06,1.06,0,0,1,211.78,150Z"/><path class="cls-2" d="M218.1,153.5l1.19-1.7a11.15,11.15,0,0,0,.7-1.24,3.76,3.76,0,0,0,.41-1.66,2.54,2.54,0,0,0-.7-1.86,2.45,2.45,0,0,0-1.83-.72,2.79,2.79,0,0,0-2,.72,2.26,2.26,0,0,0-.8,1.75,2.38,2.38,0,0,0,.65,1.69,2.08,2.08,0,0,0,1.58.68l.64,0-1.76,2.39Zm-.3-3.53a1,1,0,0,1-.76-.31,1.06,1.06,0,0,1-.31-.78,1.09,1.09,0,0,1,.31-.78.94.94,0,0,1,.73-.34,1.07,1.07,0,0,1,.81.33,1.06,1.06,0,0,1,.33.79,1,1,0,0,1-.33.77A1.06,1.06,0,0,1,217.8,150Z"/><path class="cls-2" d="M89.12,154c0,5.22.07,6.42,1.73,8.53a6.52,6.52,0,0,0,5.47,2.32,6.44,6.44,0,0,0,5.41-2.32c1.66-2.11,1.87-4.14,1.87-9.17,0-1.18,0-3.26,0-5a15.67,15.67,0,0,0-.71-4.73c-2-3.29-6.91-6.11-8-7.27-1.89-2-3.15-3.73-3.15-7.9,0-3.17-.1-5.88,1.24-7.47a4.47,4.47,0,0,1,3.59-1.59,4.4,4.4,0,0,1,3.81,1.85c1.23,1.72.75,6.4.75,9.64h2.14c0-3.9.54-9.11-1.28-11.42A6.62,6.62,0,0,0,96.59,117a6.41,6.41,0,0,0-5.26,2.45c-1.61,2-1.78,5.09-1.78,9.06,0,5.49,1.54,8.34,4.37,10.28a54.05,54.05,0,0,1,5.35,4.5c1.11,1,2.17,2.41,2.17,7.09,0,1.05,0,2.14,0,3.07,0,4.1.22,5.47-1.23,7.25a4.57,4.57,0,0,1-3.91,1.72,4.73,4.73,0,0,1-3.86-1.72c-1.29-1.58-1.2-2.65-1.2-6.68Z"/><path class="cls-2" d="M182.75,136.31c-1.11,1.16-6,4-8,7.27a16.32,16.32,0,0,0-.71,4.73c0,1.78,0,3.86,0,5,0,5,.2,7.06,1.87,9.17a6.43,6.43,0,0,0,5.41,2.32,6.52,6.52,0,0,0,5.47-2.32c1.66-2.11,1.73-3.31,1.73-8.53h-2.15c0,4,.1,5.1-1.19,6.68a4.75,4.75,0,0,1-3.86,1.72,4.55,4.55,0,0,1-3.91-1.72c-1.45-1.78-1.23-3.15-1.23-7.25,0-.93,0-2,0-3.07,0-4.68,1.07-6,2.18-7.09a54.05,54.05,0,0,1,5.35-4.5c2.82-1.94,4.36-4.79,4.36-10.28,0-4-.17-7.08-1.77-9.06A6.42,6.42,0,0,0,181,117a6.62,6.62,0,0,0-5.36,2.45c-1.82,2.31-1.29,7.52-1.29,11.42h2.15c0-3.24-.48-7.92.75-9.64a4.4,4.4,0,0,1,3.81-1.85,4.48,4.48,0,0,1,3.59,1.59c1.34,1.59,1.24,4.3,1.24,7.47C185.9,132.58,184.64,134.33,182.75,136.31Z"/><path class="cls-2" d="M111.4,102.58l.12-.1c2.89-2.5,17.57-15.13,22.73-18.49,5.84-3.79,13.57-4.33,18.88-3.58a31.68,31.68,0,0,1,9.35,3.44,14.25,14.25,0,0,0-7.06,3,9.33,9.33,0,0,0-3.15,6.68,8.75,8.75,0,0,0,2.25,6.84c2.29,2.4,6.15,3.62,11.49,3.62h8a.36.36,0,0,0,.36-.36v-2a.36.36,0,0,0-.11-.25.34.34,0,0,0-.25-.11h-7.36c-1.84,0-7.45.07-10.17-2.79A6.08,6.08,0,0,1,155,93.73a6.77,6.77,0,0,1,2.24-4.83c3.44-3,9.66-2.65,9.71-2.65a1.32,1.32,0,0,0,1.38-.92,1.35,1.35,0,0,0-.54-1.55c-.31-.2-7.86-5.12-14.23-6-5.77-.82-14.26-.21-20.72,4-5.95,3.87-23,18.66-23.15,18.81a1.34,1.34,0,1,0,1.76,2Z"/><path class="cls-2" d="M188.78,192.1l-45.49-45.62c7.83-8.11,38.79-42.24,40.66-44.69,1.39-1.84,1.89-3,1.55-3.68a.84.84,0,0,0-.73-.46h-.16l-44,46.13-43.87-46-.11-.11h-.15a.84.84,0,0,0-.73.46c-.34.68.15,1.84,1.55,3.68,1.88,2.45,32.84,36.58,40.66,44.69L92.5,192.1c-.43.43-.35.7-.2.86.64.66,3.48-1.54,4.76-2.71l5.34-5a1.4,1.4,0,0,1,.84,1.35,5.83,5.83,0,0,1-.12.87c-.12.61-.23,1.19.08,1.55a.79.79,0,0,0,.66.28c1.33,0,3.15-2,3.59-4.6a17,17,0,0,0,.12-4.26c17.83-16.63,29.26-27.45,33.13-31.36,4.88,4.53,23.06,21.76,33,31.2a17.34,17.34,0,0,0,.1,4.43c.44,2.63,2.27,4.59,3.6,4.59a.79.79,0,0,0,.66-.28c.3-.36.19-.94.08-1.55a4.77,4.77,0,0,1-.12-.87,1.39,1.39,0,0,1,.89-1.38l.66.62c2.79,2.64,4.47,4.24,4.63,4.38,1.12,1,3.44,2.83,4.43,2.82A.44.44,0,0,0,189,193C189.13,192.8,189.21,192.53,188.78,192.1Z"/><path class="cls-2" d="M147.42,207l-5.54,5.54V183.5h3.8a1.24,1.24,0,0,0,0-2.47h-3.8v-8.86a4.84,4.84,0,1,0-2.47,0V181h-3.8a1.24,1.24,0,0,0,0,2.47h3.8v29L133.85,207l1.29-1.29-7.4-2v.62l2.44,2.44h0L140.39,217l.26.25,8.51-8.51h0l4.28-4.27.1-.11v-.62l-7.4,2ZM143,167.5a2.37,2.37,0,1,1-2.37-2.37A2.37,2.37,0,0,1,143,167.5Z"/><path class="cls-2" d="M54.27,150.92l-5.72-2.61a13.59,13.59,0,0,0,1.29-3.12,12.75,12.75,0,0,0,.62-3.5,4.62,4.62,0,0,0-.65-2.71,1.9,1.9,0,0,0-1.52-1q-.54,0-1.08.72c-.36.48-.87,1.27-1.53,2.35l-.78,1.29q-1.73,2.83-2.87,4.42a11.93,11.93,0,0,1-2.93,2.81,6.75,6.75,0,0,1-4,1.2,7.22,7.22,0,0,1-4.21-1.39A8.88,8.88,0,0,1,28,145.58a13.9,13.9,0,0,1-1-5.62,16.89,16.89,0,0,1,.7-4.47,14,14,0,0,1,1.79-3.91l5.14,2.36a35.24,35.24,0,0,0-1.07,3.41,13.23,13.23,0,0,0-.29,2.63,3.29,3.29,0,0,0,.56,2.05,1.74,1.74,0,0,0,1.41.8,1.36,1.36,0,0,0,1.13-.63,18.57,18.57,0,0,0,1.32-2.15l.87-1.5a47.75,47.75,0,0,1,2.86-4.37,13.29,13.29,0,0,1,3.08-3,6.67,6.67,0,0,1,4-1.18,7.09,7.09,0,0,1,4.31,1.46,9.2,9.2,0,0,1,2.92,4,15.42,15.42,0,0,1,1,6.06,21.41,21.41,0,0,1-.76,5A15.9,15.9,0,0,1,54.27,150.92Z"/><path class="cls-2" d="M31.09,113.08l16.54,5.09a5.53,5.53,0,0,0,4.3-.18,5.54,5.54,0,0,0,2.2-7.15,5.52,5.52,0,0,0-3.46-2.57l-16.53-5.08,2.25-7.32,16.89,5.19a11.67,11.67,0,0,1,5.51,3.37,10.18,10.18,0,0,1,2.43,5.46,17.47,17.47,0,0,1-4,12.87,10.13,10.13,0,0,1-5.08,3.15,11.64,11.64,0,0,1-6.44-.31l-16.9-5.2Z"/><path class="cls-2" d="M42.37,84.31l7.06-9.75a13.94,13.94,0,0,1,6.94-5.42q3.91-1.26,7.88,1.6a9.23,9.23,0,0,1,3,3.44,8.67,8.67,0,0,1,.87,4.14L81,79.81,75.75,87l-10-1.53-3,4.12,7.3,5.28-4.49,6.21Zm11.79-6-2.42,3.34,6.14,4.45,2.46-3.41a4.11,4.11,0,0,0,.84-3,3.64,3.64,0,0,0-1.57-2.53,3.52,3.52,0,0,0-2.9-.77A4.47,4.47,0,0,0,54.16,78.29Z"/><path class="cls-2" d="M89.28,60.43l-7.49,5.86,6.67,8.52-6,4.72L64.81,57,79.42,45.59l4.28,4.3-9.15,7.16,3.53,4.5L85,56.13Z"/><path class="cls-2" d="M105.25,61.75l.63-6.26a13.66,13.66,0,0,0,3.36.22,13.1,13.1,0,0,0,3.52-.54,4.69,4.69,0,0,0,2.35-1.49,1.92,1.92,0,0,0,.49-1.77c-.11-.35-.46-.61-1-.8s-1.48-.41-2.72-.69l-1.48-.32q-3.24-.72-5.1-1.29A11.83,11.83,0,0,1,101.66,47a6.69,6.69,0,0,1-2.43-3.42,7.14,7.14,0,0,1,0-4.43,8.79,8.79,0,0,1,2.64-3.93,13.8,13.8,0,0,1,5-2.72,16.79,16.79,0,0,1,4.46-.78,13.7,13.7,0,0,1,4.27.43L115,37.73a29.81,29.81,0,0,0-3.57.09,12,12,0,0,0-2.59.57,3.29,3.29,0,0,0-1.76,1.19,1.76,1.76,0,0,0-.3,1.6,1.39,1.39,0,0,0,1,.86,17.85,17.85,0,0,0,2.45.55l1.7.34a50.25,50.25,0,0,1,5.07,1.3,13.37,13.37,0,0,1,3.79,2,6.61,6.61,0,0,1,2.39,3.36,7.12,7.12,0,0,1,0,4.56,9.18,9.18,0,0,1-2.86,4.06,15.39,15.39,0,0,1-5.41,2.9,21.27,21.27,0,0,1-5,.89A16.22,16.22,0,0,1,105.25,61.75Z"/><path class="cls-2" d="M141.73,27.52l11.63,27.91-7.51,1-2.26-6-9.88.33-1.79,5.7-7.62.25,9.78-29Zm-3.64,9.3-2.48,7.87,5.59-.19Z"/><path class="cls-2" d="M154.19,56.12l8.29-27.39,6.81,2.06,6.05,18.05L179.84,34l7.33,2.22-8.29,27.39L172,61.52l-6.15-17.61-4.37,14.42Z"/><path class="cls-2" d="M194.19,66.92,208,48.72l6.1,4.62-15.16,20a7.19,7.19,0,0,1-2.76,2.36,6.67,6.67,0,0,1-3.46.45,22.34,22.34,0,0,1-5-1.3l1.18-6.71a6.26,6.26,0,0,0,3.33.24A4,4,0,0,0,194.19,66.92Z"/><path class="cls-2" d="M227.45,66.17,214,77a5.54,5.54,0,0,0-2.27,3.67,5.57,5.57,0,0,0,4.7,5.83,5.53,5.53,0,0,0,4.06-1.43l13.47-10.84,4.8,6L225,91.28A11.67,11.67,0,0,1,219.1,94a10.26,10.26,0,0,1-5.89-1,16,16,0,0,1-5.27-4.41,15.74,15.74,0,0,1-3.17-6.09,10.26,10.26,0,0,1,.24-6,11.8,11.8,0,0,1,3.87-5.17L222.65,60.2Z"/><path class="cls-2" d="M249.8,104.69l-22.62,20.06L223.79,118l4.93-4.08-3.52-9.25-6,.16-2.71-7.11,30.56-.17Zm-10-.43-8.25.22,2,5.23Z"/><path class="cls-2" d="M226.75,125.74l28.6-1,.25,7.11L240.48,143.4l15.52-.55.27,7.65-28.6,1-.26-7.15,14.67-11.51-15.06.53Z"/><path class="cls-2" d="M141.73,283.46C63.58,283.46,0,219.88,0,141.73S63.58,0,141.73,0,283.46,63.58,283.46,141.73,219.88,283.46,141.73,283.46Zm0-279.56C65.73,3.9,3.9,65.73,3.9,141.73S65.73,279.56,141.73,279.56s137.83-61.83,137.83-137.83S217.73,3.9,141.73,3.9Z"/><path class="cls-2" d="M76.3,200.69l-2.34.63a12.74,12.74,0,0,0-.58-1.42,6.14,6.14,0,0,0-.62-1,2.51,2.51,0,0,0-1.26-.81,3.39,3.39,0,0,0-1.71,0A4.1,4.1,0,0,0,68,199a4.15,4.15,0,0,0-1.24,1.54,3.18,3.18,0,0,0-.27,1.69,2.77,2.77,0,0,0,.59,1.44,4.4,4.4,0,0,0,2,1.39l-1.13,2.51a6.25,6.25,0,0,1-1.58-.92A7.65,7.65,0,0,1,65,205.27a6.73,6.73,0,0,1-1.5-3.15A5.41,5.41,0,0,1,63.8,199a7.26,7.26,0,0,1,5.18-4.1,5.84,5.84,0,0,1,3.18.32,6.32,6.32,0,0,1,2.67,2,7.22,7.22,0,0,1,1,1.67A5.71,5.71,0,0,1,76.3,200.69Z"/><path class="cls-2" d="M82.8,206l-5,11.93-2.56-2,1.15-2.49-3.07-2.92L71,211.65l-2.36-2.25,11.79-5.71Zm-3.94,1.68-3.15,1.6,1.73,1.66Z"/><path class="cls-2" d="M86.72,224.71l-7.08-5.24,7.29-9.86,2.64,1.95-5.76,7.79,4.19,3.1Z"/><path class="cls-2" d="M88.73,226l6.12-10.63,7.05,4.07-1,2.39-4.47-2.58-1.12,1.94L98.56,223l-1,2.39-3.53-2-1.14,2,4.67,2.69-1,2.39Z"/><path class="cls-2" d="M111.69,226.49,108.08,225l-3.78,8.91-3-1.28,3.78-8.91-3.32-1.41,1-2.38,9.66,4.1Z"/><path class="cls-2" d="M118.94,225.89l1,12.92-3.19-.59-.12-2.74-4.07-1.18-1.49,2.08-3.14-.91L115.78,225Zm-2.73,3.31-2.06,2.87,2.31.67Z"/><path class="cls-2" d="M132.61,240.74l-5.46-.51L128.3,228l5.53.51a6.08,6.08,0,0,1,3.06,1.07,4.93,4.93,0,0,1,1.76,2.32,7.61,7.61,0,0,1-.67,6.39,5.22,5.22,0,0,1-2.26,2A6.05,6.05,0,0,1,132.61,240.74Zm.82-9.65-2.11-.2-.66,7.08,2,.18a2.37,2.37,0,0,0,2-.75,4.23,4.23,0,0,0,1-2.61,4.27,4.27,0,0,0-.44-2.57A2.15,2.15,0,0,0,133.43,231.09Z"/><path class="cls-2" d="M141.55,241.23,141.09,229l8.13-.3.4,2.57-5.15.19.08,2.23,3.77-.14.4,2.57-4.07.15.08,2.29,5.39-.2.4,2.56Z"/><path class="cls-2" d="M164.1,233.94l-4,.8.91,4.54-3.22.65-2.4-12,7.8-1.56.81,2.47-4.88,1,.48,2.41,3.7-.74Z"/><path class="cls-2" d="M170.31,224.12l8.1,10.1-3,1.31-1.65-2.2-4,1.32-.06,2.56-3.1,1,.58-13.09Zm-.4,4.26-.08,3.53,2.28-.74Z"/><path class="cls-2" d="M184,227.82l-2.86-1.27,2.65,5.31-2.94,1.46-5.47-11,2-1,5.39,2.53.95-5.69,1.95-1,5.48,11-2.94,1.46-2.65-5.31-.49,2.74Z"/><path class="cls-2" d="M192.94,212.28l10.7,7.31-2.46,2.12L199,220.09l-3.47,2.42.69,2.47-2.68,1.87-3.25-12.69Zm.86,4.2.95,3.4,2-1.37Z"/><path class="cls-2" d="M197.34,209l3.78-3.51a5.94,5.94,0,0,1,3.37-1.7,3.64,3.64,0,0,1,3.18,1.33,3.89,3.89,0,0,1,1,1.69,3.74,3.74,0,0,1,0,1.82l5.27,1.7L211.15,213l-4.08-1.48-1.6,1.48,2.62,2.83-2.4,2.24Zm5.46-1.55-1.3,1.2,2.21,2.38,1.32-1.22a1.76,1.76,0,0,0,.6-1.19,1.56,1.56,0,0,0-.44-1.19,1.53,1.53,0,0,0-1.16-.57A1.91,1.91,0,0,0,202.8,207.48Z"/><path class="cls-2" d="M210.68,195.07l12.32,4-1.77,2.72-2.58-.94-2.66,3.3,1.35,2.18-2.05,2.54-6.67-11.27Zm2,3.79,1.87,3,1.5-1.87Z"/></g></g></svg>