<svg xmlns="http://www.w3.org/2000/svg" viewBox="0 0 283.46 283.46"><defs><style>.cls-1{fill:#010101;}.cls-2,.cls-3{fill:#fff;}.cls-3{fill-rule:evenodd;}.cls-4{fill:#1e1e1c;}</style></defs><title>Recurso 10</title><g id="Capa_2" data-name="Capa 2"><g id="PEGATINAS"><circle class="cls-1" cx="141.73" cy="141.73" r="141.73"/><path class="cls-2" d="M141.73,8.33a133.41,133.41,0,1,0,133.41,133.4A133.4,133.4,0,0,0,141.73,8.33Zm0,240.54A107.14,107.14,0,1,1,248.87,141.73,107.14,107.14,0,0,1,141.73,248.87Z"/><path class="cls-2" d="M78.2,121.19l-2.29,28.44L67.63,149,51.35,130.5l-1.38,17-7.91-.64,2.29-28.43,7.92.64,16.22,19.13,1.43-17.71Z"/><path class="cls-2" d="M81.39,83.26a17.9,17.9,0,1,1-24.59,6A17.87,17.87,0,0,1,81.39,83.26ZM77.33,90a10.06,10.06,0,1,0,3.38,13.78A10.06,10.06,0,0,0,77.33,90Z"/><path class="cls-2" d="M116.9,61.44a17.89,17.89,0,1,1-24.45-6.52A17.85,17.85,0,0,1,116.9,61.44Zm-6.78,3.94a10.06,10.06,0,1,0-3.63,13.71A10.07,10.07,0,0,0,110.12,65.38Z"/><path class="cls-2" d="M151.24,55.22l.06.79a13.42,13.42,0,0,1-12.38,13.55l-7,.53.54,7.19-8.28.62-2.56-33.85,16.46-1.24c7-.53,12.22,5,13.08,11.64Zm-8.38.64a5.05,5.05,0,0,0-5.33-4.68l-7,.53.76,10.1,6.88-.52A5,5,0,0,0,142.86,55.86Z"/><path class="cls-2" d="M174.71,79.84l-15.34-6-3.83,3.5L147,74l28-25.53,5.75,2.23,2.83,37.54L175.17,85Zm-.56-7.34-.77-12-8.44,8.43Z"/><path class="cls-2" d="M196.72,106.62,200,97l-3.65-4.7-6.68,5.2L184.54,91l26.8-20.85,10.14,13c4.26,5.49,2.77,13.27-3.09,17.83a11.22,11.22,0,0,1-11.88,1.56L203,114.7Zm5.49-18.9,4.24,5.45c1.7,2.18,4.55,2.88,6.78,1.15a5,5,0,0,0,.88-7l-4.27-5.49Z"/><path class="cls-2" d="M218.86,128.86l-3.93-3-9.5,1.09-.93-8.09L238.24,115l.94,8.09-13.55,1.57L240.78,137,242,147.24l-16.49-13.46L208.32,152,207,140.53Z"/><path class="cls-2" d="M73.35,166.8l-7.06,2.92,5.19,12.53L64.81,185l-5.19-12.53L49,176.86,46,169.42l24.31-10.06,6.67-2.76L86.61,180l-6.67,2.77Z"/><path class="cls-2" d="M80.94,214.49,69.41,203l-4.84,1.66-6.45-6.4,35.47-12,4.32,4.3-12.27,35.1-6.33-6.3Zm2.39-6.86,4-11.18-11,4.3Z"/><path class="cls-2" d="M141.36,209.83l-9.25,32.23-7.73-2.22,4.72-16.46-12.31,14.29-3.37-1-2.76-18.45L106,234.57l-7.78-2.24,9.25-32.23,7.78,2.23,0,.15,3.93,20.72,14.51-15.59,0,0,0,0Z"/><path class="cls-2" d="M171.62,231.74l-15.81,3.76-1.15,5-8.83,2.09,8.46-36.48,5.92-1.41,23.37,28.92-8.68,2.07Zm-4.57-5.64-7.37-9.34-2.12,11.59Z"/><path class="cls-2" d="M210,213.71l-9.61-2.84-4.5,3.79,5.39,6.39L195,226.34l-21.6-25.65,12.47-10.5c5.25-4.42,13-3.25,17.7,2.36a11.08,11.08,0,0,1,2,11.67l12.15,3ZM191.18,209l5.21-4.39c2.09-1.76,2.66-4.6.87-6.73a5,5,0,0,0-7-.6L185,201.72Z"/><path class="cls-2" d="M232.24,170.12l-6.2,15,3.38,3.85L226,197.39,201.31,169.2l2.32-5.63,37.12-2-3.4,8.25Zm-7.26.41-11.88.52,8.16,8.5Z"/><path class="cls-3" d="M186.16,158.73l.12-.1.18-.17s.19-.1.22-.13c.28-.37.41-.55,0-.84-.81-.54-.42.2-.77.85-.06.12-.52.1-.34.42s.31.14.47.07A.56.56,0,0,0,186.16,158.73Z"/><path class="cls-3" d="M187.93,159.11c-.13-.32-.73-.22-1-.69a.5.5,0,0,1-.11.2l-.13.13-.12.15a2.2,2.2,0,0,0-.25.39,3.28,3.28,0,0,0-.33.74c-.23,1.18-.46.46-1.1.42-.15,0-.3.29-.68.34s-.37-.12-.68.25a1.78,1.78,0,0,1-.34.34c-.32.23-.59,0-.93.17a4,4,0,0,0-1.45,1.35c-.18.52.15,1.29,0,1.7-.06.15-.84.69-.85.76s.13.52.16.76a1.64,1.64,0,0,1,1.61.26c.07-.21.62-.55.69-.68s-.09-.44.08-.59c.43-.37,1-.06,1.61-.25a6.94,6.94,0,0,0,.85-.59c.25-.11.63-.06.85-.17.06,0,.13-.23.26-.34s.66-.24.76-.33c.54-.47.23-.8.34-1.36.08-.37.39-.46.35-.76,0-.13-.4-.3-.34-.6s.54-.33.59-.42A1.8,1.8,0,0,0,187.93,159.11Z"/><path class="cls-2" d="M108.5,169.48c-.18-.4-.18-1.25-.41-1.45s-1,.14-1.45.09-.86-.44-1-.43h-.09c-.2.13-.34.14-.51.25-.38.25-.36.44-.59.76-.09.12-.31.14-.34.17-.56.53.06,1.1.25,1.53s.12.79.25,1.1c.19.46.64.75.67,1.11s0,.23.17.51a3,3,0,0,1,.51.93c.13.41,0,1,.16,1.36,0,0,.42.44.68.34s.21-.46.43-.85a17.58,17.58,0,0,0,1-1.52c.35-1-.27-1.91.09-2.46.19-.3.58-.3.6-.76C108.94,169.91,108.61,169.7,108.5,169.48Z"/><path class="cls-2" d="M179.35,168.6c-1.25,0,.19,1.41,0,0Z"/><path class="cls-2" d="M178.84,169.36a2.77,2.77,0,0,0-.93-.68l-.17.17a4.19,4.19,0,0,0-.68.08,8.82,8.82,0,0,0-1,.51s-.37.14-.34.08c-.17.3.12.62.08.93s-.38.72-.42,1.11c0,.12.11.34.08.42s-.43.42-.6.76c-.25.5-.26,1.19-.51,1.53s-.75.43-.93.84,0,.89-.18,1.27-.65.49-.76.77c-.27.64.11,1.43-.09,1.95a6,6,0,0,1-1.79,1.6,3.44,3.44,0,0,1-3,.59,4.81,4.81,0,0,1-.34,1,2.16,2.16,0,0,1,1.69.09,4.44,4.44,0,0,0,1.53.35,6,6,0,0,0,1.11-1.1c.37-.47.54-1,.93-1.27s.55-.07.94-.17c.13,0,.31-.19.5-.25a19.85,19.85,0,0,0,2-.42c.2-.09.31-.29.51-.34.69-.17.68-.06,1-.5a4.1,4.1,0,0,0,.43-.6c.06-.15-.13-.3-.09-.5s.33-.37.43-.6,0-.61.17-.84.23-.19.26-.34c.06-.36-.12-.45-.17-.77,0-.1.1-.35.08-.51s-.2-.34-.16-.51.35-.21.42-.33.05-.27.09-.43.16-.35.17-.42c.09-.62-.17-1.67-.16-2.38A1.94,1.94,0,0,0,178.84,169.36Z"/><path class="cls-3" d="M132.73,185.4c.32-.71-.34-.83-.68-1.27a9.88,9.88,0,0,1-.51-1.11c-.15-.28-.42-.42-.5-.68s.13-.61,0-1c0-.16-.18-.06-.34-.25s-.24-.61-.42-.85-.19-.27-.25-.34-.43-.24-.43-.34c0-.5.22-.21.85-.51s.65-.65,1.19-.25c.08.06.34.28.26.26.32.08.86-.26,1.27-.34.14,0,.19.13.34.09s0-.19.08-.26.18.1.26.09.06-.16.17-.17c.54-.08,1,.23,1.44.09.26-.09.4-.36.68-.42s.52.18.76-.09c0,0,.07-.24.09-.25s.31,0,.42-.09.23-.5.43-.67.35-.07.42-.17,0-.44.09-.59c.35-.67,1.24-.33,1.7-1.19.42.25.79,0,.93,0,.39,0,.75.34,1.27.17.25-.08.59-.42.68-.42.46,0,.82.57.85.76a1.89,1.89,0,0,0-.09.51,2.18,2.18,0,0,0-.34.34c-.17.07-.23-.11-.34-.09s-.41.43-.76.59-.5.09-.6.17-.05.45-.17.6-.21,0-.25,0c-.45.29-.72.84-1.19,1a1.13,1.13,0,0,0-.6.76c-.05.31.17.53.08.94-.05.22-.28.26-.42.5s-.26,1-.43,1.27-.27.23-.34.68c0,.22,0,.67,0,.76s-.3.13-.43.26-.07.32-.17.42-.3.13-.34.17-.08.31-.17.42-.43.33-.59.51c-.52.57-.17.51-.94.51a2.3,2.3,0,0,0-.76.16c-.15.07-.26.29-.43.34a4.2,4.2,0,0,1-1.18,0C133.09,186.23,133.4,185.18,132.73,185.4Z"/><path class="cls-2" d="M121.46,181.83a5.37,5.37,0,0,1-.42-.34c-.08,0-.28.06-.34,0s0-.32-.17-.42-.6,0-.85-.09-.22-.28-.42-.34l-.26.08a3.22,3.22,0,0,0-.76.17,3.19,3.19,0,0,0-.34.93c-.07.2-.24.25-.26.34a5.77,5.77,0,0,0,0,1s.33.2.42.42a2,2,0,0,0,2.54,1c.42-.18.53-.43.94-.77.23-.19.55-.31.59-.42C122.33,182.88,121.81,182.06,121.46,181.83Z"/><path class="cls-2" d="M159.38,184.44c0-.14.27-.29.26-.42a2.36,2.36,0,0,0-.34-.77c-.14-.14-.36-.12-.42-.25-.16-.35,0-.85,0-1.19s-.52-.53-.08-.68c0,0,0,.27.16.17.58-1.29-1.18-1.16-.59-.17-.48.51-.93-.3-1.61-.35-.12,0-.32.15-.42.17a2.42,2.42,0,0,1-.85,0c-.37-.12-.32-.5-.59-.51s-.38.26-.51.25c-.24-.41-.44-.06-.77-.17.15.43.07.49,0,.93,0,.27,0,.63,0,.68a2,2,0,0,1-.68.68c-.35.19-.22.16-.51.42s-.44.1-.77.25c0,.78-.4,1.38-.26,2a5.85,5.85,0,0,0,.43.68c.16.3.21.67.33.85.53.74,1.68,1,2,1.78.66-.33.94.37,1.87.26.14-.55.28-.56.85-.84s1.37-.2,1.7-.51-.14-.25.08-.67c.12-.21.58-.3.6-.34.22-.49-.24-1.16.09-1.44.13-.12.31.27.42,0S159.33,184.89,159.38,184.44Z"/><path class="cls-2" d="M111.09,179.47c-.54-.17-1,.33-1.53.5.23.59,0,.48-.34.76a1.55,1.55,0,0,1-1.61.42c-.19-.08-.14-.27-.34-.25-.56,0-.46.4-.51.76,0,.06-.16.09-.17.26,0,.7,1.32.42,2,.68.3.13.71,1.43,1.35,1.11.3-.16.14-1.17.43-1.61.08-.14.34,0,.51-.17,0,0,.1-.29.17-.43.24-.49.68-.89.68-1.18A1.61,1.61,0,0,0,111.09,179.47Z"/><path class="cls-2" d="M139,161.35c2.72-9.4,10.84-36.39,12.75-44.19,2.31-9.48.76-14-.91-17.45a3.1,3.1,0,0,1,.43,0,18.29,18.29,0,0,1,4.23.77c4.49,1.19,6.65,2,7.59,3.61s.74,4-.61,9C159.73,123.31,144.3,152,139,161.35Z"/><path class="cls-2" d="M151.08,143.49c2.76-5.13,9.08-16.91,11.4-21.63,3-6.07,4.48-12.37,4.4-15.45a.26.26,0,0,1,.29-.21,4.83,4.83,0,0,1,2.38,1,22.82,22.82,0,0,1,5.86,5.06C176.6,113.92,179.13,117.43,151.08,143.49Z"/><path class="cls-2" d="M162.25,135.41l2.18-2.08a108.53,108.53,0,0,0,10.84-11.54,17.41,17.41,0,0,0,3.42-6,.56.56,0,0,1,.09-.26c.06.06.74.44,2.91,4.15,2.34,4,1.49,4.79-3.4,8.35C174.56,130.77,166.09,134,162.25,135.41Z"/><path class="cls-2" d="M181.17,135.22c-3.29,0-8.14-.44-11-.73a45.78,45.78,0,0,0,11.33-5.72,8.27,8.27,0,0,0,2.76-2.63c.27.8.66,2.46,1,3.85l.11.47c.44,1.83.76,3.15.26,3.82s-1.32.8-3,.9C182.21,135.2,181.71,135.22,181.17,135.22Z"/><path class="cls-2" d="M184.76,142.11a11.76,11.76,0,0,1-4.73-1.73,5.43,5.43,0,0,1-1.79-1.43,11.58,11.58,0,0,0-2.16-1.95c1.72.14,4.21.32,5.46.32a14,14,0,0,0,4.55-.52,14.72,14.72,0,0,1-.49,4.88C185.56,141.81,185.46,142.11,184.76,142.11Z"/><path class="cls-2" d="M183.32,149a14.28,14.28,0,0,0-1.78-6,11.12,11.12,0,0,0,3.16.88l.41,0c0,.15-.36,1.2-.36,1.2C184.49,145.94,183.86,147.64,183.32,149Z"/><polygon class="cls-2" points="127.57 114.16 138.08 114.16 138.32 161.2 127.57 114.16"/><polygon class="cls-2" points="110.05 113.97 120.63 114.16 138.2 160.7 110.05 113.97"/><polygon class="cls-2" points="99.2 113.97 104.99 113.97 138.32 161.47 99.2 113.97"/><polygon class="cls-2" points="99.2 113.97 120.15 101.86 104.99 113.97 99.2 113.97"/><polygon class="cls-2" points="110.05 113.97 125.28 99.55 120.63 114.16 110.05 113.97"/><polygon class="cls-2" points="127.57 114.16 127.57 99.38 138.08 114.16 127.57 114.16"/><path class="cls-2" d="M138.73,161.35c.86-11.15,3.47-38.89,3.82-43.7.42-5.72-2.58-8.93-8-14.75-1-1-2-2.14-3.13-3.38l-.3-.35c-.23-.28-.47-.56-.62-.76l.58,0c1.63,0,9.48.13,12.72.35a5,5,0,0,1,3.73,2c2,2.68,2.3,8,.77,15.38C146.07,126.75,140.94,151.46,138.73,161.35Z"/><path class="cls-4" d="M14.68,148.45l2.56.87a5.89,5.89,0,0,0-.41,1.38,5.2,5.2,0,0,0-.11,1.52,2,2,0,0,0,.39,1.12.85.85,0,0,0,.7.38c.15,0,.3-.13.43-.36s.31-.58.55-1.07l.27-.58c.41-.86.75-1.53,1-2a5.15,5.15,0,0,1,1.12-1.33,2.94,2.94,0,0,1,1.66-.69,3.08,3.08,0,0,1,1.86.41,3.74,3.74,0,0,1,1.38,1.48,5.94,5.94,0,0,1,.66,2.35,7.13,7.13,0,0,1-.1,1.94,5.75,5.75,0,0,1-.59,1.74l-2.29-.78a13,13,0,0,0,.3-1.5,6,6,0,0,0,0-1.13,1.39,1.39,0,0,0-.33-.85.75.75,0,0,0-.64-.28.59.59,0,0,0-.45.32,7.73,7.73,0,0,0-.47,1l-.3.67a20.85,20.85,0,0,1-1,2,5.49,5.49,0,0,1-1.18,1.4,2.87,2.87,0,0,1-1.63.68,3.08,3.08,0,0,1-1.91-.43,4,4,0,0,1-1.42-1.59,6.41,6.41,0,0,1-.69-2.53,9,9,0,0,1,.1-2.16A7.14,7.14,0,0,1,14.68,148.45Z"/><path class="cls-4" d="M27.68,161l-7.28,1.38a2.42,2.42,0,0,0-1.6.92,2.19,2.19,0,0,0-.31,1.7,2.16,2.16,0,0,0,.91,1.46,2.38,2.38,0,0,0,1.82.28l7.29-1.38.61,3.22L21.67,170a4.93,4.93,0,0,1-2.75-.17,4.29,4.29,0,0,1-2-1.59,6.75,6.75,0,0,1-1.1-2.72,6.63,6.63,0,0,1,0-2.95,4.26,4.26,0,0,1,1.3-2.2,5,5,0,0,1,2.5-1.18l7.44-1.4Z"/><path class="cls-4" d="M29.74,170.94l1.52,4.93a5.88,5.88,0,0,1,.07,3.77,3.61,3.61,0,0,1-2.57,2.29,4,4,0,0,1-2,.14,3.6,3.6,0,0,1-1.64-.77l-3.82,4-1.13-3.64,3.1-3-.64-2.09L19,177.7l-1-3.13Zm-1,5.59-.53-1.69-3.1,1,.54,1.72a1.72,1.72,0,0,0,.8,1.06,1.56,1.56,0,0,0,1.27.11,1.47,1.47,0,0,0,1-.79A1.94,1.94,0,0,0,28.77,176.53Z"/><path class="cls-4" d="M29.49,192.71,27.91,189l-4.27,1.8-1.27-3L33.65,183l3.09,7.33-2.26,1.29L32.55,187l-2.26,1,1.46,3.47Z"/><path class="cls-4" d="M32,201a1.67,1.67,0,0,1-.15-1.27,1.65,1.65,0,0,1,3.05-.31,1.57,1.57,0,0,1,.14,1.25,1.61,1.61,0,0,1-.81,1,1.56,1.56,0,0,1-1.26.14A1.59,1.59,0,0,1,32,201Z"/><path class="cls-4" d="M38.05,216.45l2-5.19L38.72,211l-3,2.11-1.88-2.69,10.05-7,1.88,2.69-3.49,2.43L48.8,210l0,3.13-5.58-1.18-2.73,8Z"/><path class="cls-4" d="M42.06,221.67l9.44-7.81,2.1,2.52-9.45,7.82Z"/><path class="cls-4" d="M60.08,227.14l-2.71-2.82-7,6.7-2.27-2.37,7-6.7-2.5-2.6,1.86-1.79,7.27,7.57Z"/><path class="cls-4" d="M54.93,235.51l8-9.27,6.14,5.33-1.46,2.15-3.89-3.38L62.29,232l2.85,2.47-1.46,2.15L60.6,234l-1.5,1.73,4.08,3.53-1.46,2.15Z"/><path class="cls-4" d="M70,243.59a1.63,1.63,0,0,1-.7-1.06,1.66,1.66,0,0,1,2.6-1.64,1.56,1.56,0,0,1,.67,1.06,1.68,1.68,0,0,1-1.35,1.93A1.62,1.62,0,0,1,70,243.59Z"/><path class="cls-4" d="M75.4,250l2.16-1.61a5.58,5.58,0,0,0,.91,1.12,5.31,5.31,0,0,0,1.19,1,2,2,0,0,0,1.15.31.82.82,0,0,0,.7-.36.62.62,0,0,0-.05-.55c-.11-.24-.3-.59-.57-1.06l-.33-.56c-.48-.82-.83-1.48-1.07-2a4.86,4.86,0,0,1-.46-1.68,2.8,2.8,0,0,1,.37-1.76,3,3,0,0,1,1.38-1.3,3.72,3.72,0,0,1,2-.3,5.86,5.86,0,0,1,2.31.78,7.35,7.35,0,0,1,1.54,1.18,5.62,5.62,0,0,1,1.1,1.48l-1.94,1.45a13.15,13.15,0,0,0-1.06-1.1,5.64,5.64,0,0,0-.93-.65,1.38,1.38,0,0,0-.89-.21.76.76,0,0,0-.59.37.59.59,0,0,0,0,.55,6.72,6.72,0,0,0,.54.94l.39.63a22.28,22.28,0,0,1,1,2,5.7,5.7,0,0,1,.49,1.76,2.84,2.84,0,0,1-.37,1.73A3.07,3.07,0,0,1,83,253.47a4,4,0,0,1-2.11.27,6.67,6.67,0,0,1-2.49-.86,9.69,9.69,0,0,1-1.72-1.31A6.69,6.69,0,0,1,75.4,250Z"/><path class="cls-4" d="M93.08,246.41l-3,6.78A2.36,2.36,0,0,0,90,255a2.37,2.37,0,0,0,2.94,1.29A2.35,2.35,0,0,0,94.16,255l3-6.79,3,1.32-3,6.94a5,5,0,0,1-1.71,2.17,4.39,4.39,0,0,1-2.44.77,7.55,7.55,0,0,1-5.29-2.33,4.37,4.37,0,0,1-1.08-2.32A5,5,0,0,1,87,252l3-6.94Z"/><path class="cls-4" d="M102,263l-3.13-1,3.68-11.7,4.92,1.54a6.64,6.64,0,0,1,2.29,1.24,4.23,4.23,0,0,1,1.28,2,4.17,4.17,0,0,1-.08,2.51,3.84,3.84,0,0,1-1.4,2.05,4.36,4.36,0,0,1-2.24.8,6.87,6.87,0,0,1-2.59-.33l-1.66-.52Zm4.59-8.71-1.68-.53-1.06,3.37,1.72.54a1.61,1.61,0,0,0,1.33-.09,1.63,1.63,0,0,0,.83-1,1.91,1.91,0,0,0-.06-1.42A1.66,1.66,0,0,0,106.55,254.32Z"/><path class="cls-4" d="M117.05,263.77a1.69,1.69,0,0,1-1.07-.69,1.6,1.6,0,0,1-.24-1.25,1.64,1.64,0,0,1,2-1.3,1.58,1.58,0,0,1,1,.7,1.6,1.6,0,0,1,.24,1.25,1.53,1.53,0,0,1-.7,1A1.57,1.57,0,0,1,117.05,263.77Z"/><path class="cls-4" d="M124.64,267.47l1.32-2.35a5.65,5.65,0,0,0,1.29.66,5.38,5.38,0,0,0,1.47.39,2,2,0,0,0,1.18-.18.8.8,0,0,0,.49-.61.59.59,0,0,0-.26-.49c-.2-.17-.52-.42-1-.74l-.52-.38c-.77-.55-1.36-1-1.79-1.38a5.32,5.32,0,0,1-1.1-1.35,2.93,2.93,0,0,1-.37-1.75,3.08,3.08,0,0,1,.75-1.75,3.69,3.69,0,0,1,1.71-1.09,5.94,5.94,0,0,1,2.43-.22,7.27,7.27,0,0,1,1.88.46,5.63,5.63,0,0,1,1.61.9l-1.19,2.11a13.34,13.34,0,0,0-1.42-.57,5.07,5.07,0,0,0-1.11-.22,1.39,1.39,0,0,0-.89.17.75.75,0,0,0-.4.57.62.62,0,0,0,.24.51,8.26,8.26,0,0,0,.87.64l.61.42a18.15,18.15,0,0,1,1.76,1.38A5.39,5.39,0,0,1,133.4,264a2.82,2.82,0,0,1,.36,1.73,3,3,0,0,1-.77,1.79,4,4,0,0,1-1.82,1.11,6.52,6.52,0,0,1-2.62.21,8.75,8.75,0,0,1-2.1-.49A6.92,6.92,0,0,1,124.64,267.47Z"/><path class="cls-4" d="M145.45,257.86l-1,2.2c-.63-.22-1.12-.37-1.46-.45a5.57,5.57,0,0,0-1.13-.13,2.41,2.41,0,0,0-1.42.45,3.35,3.35,0,0,0-1.12,1.3,4.25,4.25,0,0,0-.45,1.92,4,4,0,0,0,.4,1.93,3.15,3.15,0,0,0,1.12,1.29,2.75,2.75,0,0,0,1.48.47,4.53,4.53,0,0,0,2.34-.63l1.2,2.47a6.1,6.1,0,0,1-1.71.63,8.39,8.39,0,0,1-2,.21,6.85,6.85,0,0,1-3.38-.85,5.45,5.45,0,0,1-2.17-2.27,6.73,6.73,0,0,1-.71-3.29,6.64,6.64,0,0,1,.86-3.3,5.87,5.87,0,0,1,2.28-2.25,6.43,6.43,0,0,1,3.25-.77,7.26,7.26,0,0,1,1.92.31A5.72,5.72,0,0,1,145.45,257.86Z"/><path class="cls-4" d="M155.58,268.53l-.44-4.78-4.27.4.44,4.77-3.27.3L146.91,257l3.26-.41.46,5,4.27-.4-.45-4.86,3.27-.3,1.13,12.21Z"/><path class="cls-4" d="M165.69,254.23a6.66,6.66,0,0,1,3.48.1,5.58,5.58,0,0,1,2.62,1.77,6.73,6.73,0,0,1,1.42,3,6.83,6.83,0,0,1-.09,3.43,5.78,5.78,0,0,1-1.71,2.71,6.56,6.56,0,0,1-3.06,1.49,6.45,6.45,0,0,1-3.45-.12,5.75,5.75,0,0,1-2.63-1.77,6.58,6.58,0,0,1-1.43-3,6.68,6.68,0,0,1,.1-3.42,5.74,5.74,0,0,1,1.73-2.71A6.36,6.36,0,0,1,165.69,254.23Zm-1.56,6.89a4.11,4.11,0,0,0,1.31,2.38,2.58,2.58,0,0,0,2.32.54,2.76,2.76,0,0,0,1.91-1.4,4.06,4.06,0,0,0,.24-2.86,4,4,0,0,0-1.32-2.35,2.59,2.59,0,0,0-2.3-.53,2.56,2.56,0,0,0-1.37.76,3.28,3.28,0,0,0-.79,1.5A4.32,4.32,0,0,0,164.13,261.12Z"/><path class="cls-4" d="M178.78,250.61a6.69,6.69,0,0,1,3.47-.31,5.7,5.7,0,0,1,2.81,1.44,6.75,6.75,0,0,1,1.77,2.79,6.93,6.93,0,0,1,.32,3.43,5.71,5.71,0,0,1-1.39,2.89,7.07,7.07,0,0,1-6.29,2.13,5.69,5.69,0,0,1-2.83-1.45,6.65,6.65,0,0,1-1.77-2.78,6.83,6.83,0,0,1-.31-3.41,5.84,5.84,0,0,1,1.4-2.9A6.41,6.41,0,0,1,178.78,250.61Zm-.72,7a4.09,4.09,0,0,0,1.58,2.21,2.58,2.58,0,0,0,2.36.25,2.73,2.73,0,0,0,1.73-1.6,4.11,4.11,0,0,0-.09-2.88,4,4,0,0,0-1.59-2.17,2.63,2.63,0,0,0-2.35-.26,2.7,2.7,0,0,0-1.28.92,3.29,3.29,0,0,0-.6,1.58A4.2,4.2,0,0,0,178.06,257.64Z"/><path class="cls-4" d="M199.69,255.41l-8,3.7L186.55,248l3-1.38,4.07,8.79,4.73-2.19Z"/><path class="cls-4" d="M204.92,248.87a1.59,1.59,0,0,1-1.25.2,1.55,1.55,0,0,1-1-.76,1.62,1.62,0,0,1-.19-1.26,1.69,1.69,0,0,1,2-1.2,1.63,1.63,0,0,1,1,.78,1.54,1.54,0,0,1,.18,1.25A1.57,1.57,0,0,1,204.92,248.87Z"/><path class="cls-4" d="M221.24,241.49l-7.08,5.21-7.27-9.87,2.64-2,5.74,7.8,4.2-3.09Z"/><path class="cls-4" d="M220.37,225.94l11.53,5.89-2.17,2.41-2.4-1.33-3.13,2.85,1,2.36-2.41,2.19-4.84-12.17Zm1.38,4.05,1.38,3.25,1.77-1.61Z"/><path class="cls-4" d="M233.84,230l-9.2-8.09,2-2.29,8.11.85-5-4.4,2.17-2.46,9.2,8.09-2,2.31-8-.73,4.85,4.26Z"/><path class="cls-4" d="M248.7,211.26l-5.64,8-2.1-1-2.39-9.37-3.14,4.42L233.15,212l5.38-7.59,2.1,1.07,2.3,9.46,3.49-4.91Z"/><path class="cls-4" d="M243,196.74l12.81,2-1.3,3-2.7-.5-2.08,3.69,1.69,1.92-1.61,2.85-8.42-10Zm2.6,3.41,2.33,2.66,1.17-2.09Z"/><path class="cls-4" d="M245.77,191.56l2-4.74a5.9,5.9,0,0,1,2.39-2.92,3.62,3.62,0,0,1,3.44-.07,4,4,0,0,1,1.58,1.15,3.88,3.88,0,0,1,.75,1.65l5.51-.58-1.5,3.49-4.33.31-.86,2,3.55,1.52-1.29,3Zm4.36-3.62-.7,1.62,3,1.28.71-1.66a1.74,1.74,0,0,0,.07-1.32,1.55,1.55,0,0,0-.89-.92,1.58,1.58,0,0,0-1.29-.05A1.93,1.93,0,0,0,250.13,187.94Z"/><path class="cls-4" d="M251.91,174.72a6.58,6.58,0,0,1,1.77-3,5.65,5.65,0,0,1,2.81-1.46,6.73,6.73,0,0,1,3.29.19,6.86,6.86,0,0,1,3,1.73A5.68,5.68,0,0,1,264.3,175a7.07,7.07,0,0,1-1.92,6.36,5.81,5.81,0,0,1-2.82,1.46,6.65,6.65,0,0,1-3.3-.18,6.75,6.75,0,0,1-2.95-1.73,5.79,5.79,0,0,1-1.55-2.82A6.44,6.44,0,0,1,251.91,174.72Zm5.3,4.67a4.05,4.05,0,0,0,2.71,0,2.58,2.58,0,0,0,1.59-1.77,2.75,2.75,0,0,0-.3-2.34,4.05,4.05,0,0,0-2.4-1.6,4,4,0,0,0-2.69,0,2.75,2.75,0,0,0-1.56,3.34,3.14,3.14,0,0,0,.93,1.4A4.27,4.27,0,0,0,257.21,179.39Z"/><path class="cls-4" d="M258.56,158.09l-.72,3.85,9.52,1.78-.6,3.23-9.52-1.78-.66,3.54-2.54-.47L256,157.92Z"/><path class="cls-4" d="M268.36,157.38l-12.21-1.13.75-8.1,2.59-.07-.47,5.14,2.23.2.34-3.75,2.6-.07-.38,4.06,2.28.21.5-5.37,2.6-.06Z"/><path class="cls-4" d="M18.25,135.11a2.32,2.32,0,0,1,2.37,2.36,2.37,2.37,0,1,1-4.73,0A2.31,2.31,0,0,1,18.25,135.11Z"/><path class="cls-4" d="M264.53,135.11a2.31,2.31,0,0,1,2.36,2.36,2.36,2.36,0,1,1-4.72,0A2.31,2.31,0,0,1,264.53,135.11Z"/><path class="cls-4" d="M25.19,117l4.51,3.37-.56,2.66-15.39,3.53.84-4L24,120.37l-5.28-3.9.32-1.55,6.4-1.46-7.76-5.78.85-4,12.68,9.43-.56,2.66Z"/><path class="cls-4" d="M33.22,92.5l3.67,4.28-1.12,2.47L20,99.35l1.71-3.77,9.68-.06-4.31-5,.66-1.44,6.56,0L28,81.75,29.66,78,40,90l-1.12,2.47Z"/><path class="cls-4" d="M46.35,70.31l2.66,5-1.63,2.18L31.93,74.14l2.48-3.3,9.46,2-3.14-5.77,1-1.27,6.41,1.39-4.58-8.53L46,55.37l7.5,13.92-1.63,2.17Z"/><path class="cls-4" d="M56.49,61.44a1.48,1.48,0,0,1,2.14-.06,1.51,1.51,0,1,1-2.08,2.2A1.49,1.49,0,0,1,56.49,61.44Z"/><path class="cls-4" d="M63.65,53.52l4.15-3.68,2.5,2.81-9,8L58.83,48.72l-4.29,3.81L52,49.7l9.16-8.14Z"/><path class="cls-4" d="M69.82,35.37a7.17,7.17,0,1,1-1.9,10A7.2,7.2,0,0,1,69.82,35.37Zm2.1,3.11a3.42,3.42,0,1,0,4.75.92A3.41,3.41,0,0,0,71.92,38.48Z"/><path class="cls-4" d="M86.2,26a7.17,7.17,0,1,1-3.34,9.57A7.19,7.19,0,0,1,86.2,26Zm1.62,3.37A3.43,3.43,0,1,0,92.39,31,3.43,3.43,0,0,0,87.82,29.34Z"/><path class="cls-4" d="M97.39,21.12l5.76-1.85a5.27,5.27,0,0,1,3.29,10L104.2,30l1.17,3.63-3.59,1.15Zm5.82,5.79,2.22-.72a2.05,2.05,0,1,0-1.26-3.91L102,23Z"/><path class="cls-4" d="M112.89,31.15l3.92-15.34,1.68-.31,9.28,12.85-3.7.69-1.21-1.68-5.77,1.09-.5,2ZM118,25.06l2.87-.55-2-2.83Z"/><path class="cls-4" d="M138.38,27.78,136,24.09l-2.33.11.19,3.8-3.77.19-.7-14.33,6-.29a5.26,5.26,0,0,1,4,9l3.3,5.05ZM133.49,21l2.33-.11a2,2,0,0,0,2-2.15,2.07,2.07,0,0,0-2.16-2l-2.33.12Z"/><path class="cls-4" d="M160.1,14.57,153,20.52,160,29l-5.29-.47L150.12,23l-1,.83L148.77,28,145,27.62l1.27-14.29,3.76.34-.43,4.82,5.23-4.39Z"/><path class="cls-4" d="M165.11,15.51l8.78,2-.67,3-5.1-1.14-.51,2.28,4.5,1-.69,3.12-4.5-1-1.24,5.58L162,29.51Z"/><path class="cls-4" d="M171.51,31.49l11-11.38,1.61.56,1.71,15.76-3.56-1.23-.22-2.06-5.55-1.91-1.43,1.49Zm7.42-2.78,2.76.95-.34-3.46Z"/><path class="cls-4" d="M198.79,32.88l7.64-2,1.51.79-6.7,12.69-3.35-1.77,3.44-6.51-4.91,1.28-1.74-4.77-3.43,6.49-3.35-1.77,6.69-12.68,1.51.79Z"/><path class="cls-4" d="M203.17,45.59l13.92-7.53,1.37,1-3.12,15.54-3-2.24.41-2L208,46.84l-1.81,1Zm7.91-.42,2.35,1.74.71-3.4Z"/><path class="cls-4" d="M222.94,62,224,57.74l-1.67-1.63-2.66,2.71L217,56.19,227,46l4.32,4.22a5.26,5.26,0,0,1-3.84,9L226,65.05Zm1.69-8.22,1.66,1.63a2.06,2.06,0,1,0,2.88-2.94l-1.67-1.63Z"/><path class="cls-4" d="M227.27,66.35l15.46-3.42,1,1.35-7.28,14.1-2.29-3,1-1.84-3.58-4.66-2,.45ZM235,68.12l1.78,2.32,1.62-3.07Z"/><path class="cls-4" d="M241,80.17a1.47,1.47,0,0,1-.49,2.07,1.51,1.51,0,1,1-1.59-2.56A1.47,1.47,0,0,1,241,80.17Z"/><path class="cls-4" d="M253.15,88.78a3.38,3.38,0,0,0-.26-2.58A3.36,3.36,0,1,0,248.83,91l-1.15,3.59a7.18,7.18,0,1,1,8.61-10.07,7.12,7.12,0,0,1,.42,5.45Z"/><path class="cls-4" d="M262.55,99.32a7.18,7.18,0,1,1-9.15-4.38A7.21,7.21,0,0,1,262.55,99.32ZM259,100.56a3.43,3.43,0,1,0-2.11,4.36A3.43,3.43,0,0,0,259,100.56Z"/><path class="cls-4" d="M262.39,119.59l6.27,4.8.31,1.67-14.12,2.56-.67-3.73,7.24-1.31-4-3.08,2.68-4.31-7.23,1.31-.68-3.73,14.12-2.56.3,1.68Z"/></g></g></svg>